<?xml version="1.0" encoding="UTF-8" standalone="no"?>
<svg
   viewBox="0 0 711.91803 619.95995"
   height="619.95996"
   width="711.91803"
   xml:space="preserve"
   id="svg2"
   version="1.1"
   inkscape:version="1.1.2 (b8e25be833, 2022-02-05)"
   sodipodi:docname="logo_sf_textless_black.svg"
   xmlns:inkscape="http://www.inkscape.org/namespaces/inkscape"
   xmlns:sodipodi="http://sodipodi.sourceforge.net/DTD/sodipodi-0.dtd"
   xmlns="http://www.w3.org/2000/svg"
   xmlns:svg="http://www.w3.org/2000/svg"
   xmlns:rdf="http://www.w3.org/1999/02/22-rdf-syntax-ns#"
   xmlns:cc="http://creativecommons.org/ns#"
   xmlns:dc="http://purl.org/dc/elements/1.1/"><sodipodi:namedview
     pagecolor="#ffffff"
     bordercolor="#666666"
     borderopacity="1"
     objecttolerance="10"
     gridtolerance="10"
     guidetolerance="10"
     inkscape:pageopacity="0"
     inkscape:pageshadow="2"
     inkscape:window-width="2560"
     inkscape:window-height="1506"
     id="namedview92"
     showgrid="false"
     fit-margin-left="5"
     fit-margin-top="5"
     fit-margin-bottom="5"
     fit-margin-right="5"
     inkscape:zoom="1.7167807"
     inkscape:cx="303.76623"
     inkscape:cy="226.29565"
     inkscape:window-x="-11"
     inkscape:window-y="-11"
     inkscape:window-maximized="1"
     inkscape:current-layer="g14"
     inkscape:pagecheckerboard="0" /><metadata
     id="metadata8"><rdf:RDF><cc:Work
         rdf:about=""><dc:format>image/svg+xml</dc:format><dc:type
           rdf:resource="http://purl.org/dc/dcmitype/StillImage" /></cc:Work></rdf:RDF></metadata><defs
     id="defs6"><clipPath
       id="clipPath18"
       clipPathUnits="userSpaceOnUse"><path
         id="path16"
         d="m 0,841.89 595.28,0 L 595.28,0 0,0 Z"
         inkscape:connector-curvature="0" /></clipPath></defs><g
     transform="matrix(1.3333333,0,0,-1.3333333,-44.75971,857.05878)"
     id="g10"><g
       id="g12"><g
         clip-path="url(#clipPath18)"
         id="g14"><g
           transform="translate(421.0049,586.4683)"
           id="g20"><path
             id="path22"
             style="fill:#231f20;fill-opacity:1;fill-rule:nonzero;stroke:none"
             d="m 0,0 c -0.153,0 -0.321,-0.144 -0.392,-0.375 -0.044,-0.139 -0.043,-0.284 0,-0.396 0.017,-0.043 0.054,-0.119 0.12,-0.139 l 0.037,-0.005 c 0.118,0 0.29,0.145 0.362,0.38 0.044,0.139 0.043,0.284 0,0.396 C 0.11,-0.096 0.073,-0.02 0.008,0 Z m -0.235,-1.84 0,0 c -0.106,0 -0.209,0.015 -0.309,0.046 -0.322,0.099 -0.582,0.351 -0.712,0.692 -0.117,0.307 -0.125,0.662 -0.02,0.999 0.223,0.725 0.94,1.177 1.555,0.987 C 0.602,0.785 0.861,0.533 0.991,0.192 1.108,-0.114 1.116,-0.469 1.012,-0.807 0.824,-1.415 0.312,-1.84 -0.235,-1.84"
             inkscape:connector-curvature="0" /></g><g
           transform="translate(534.4648,542.2056)"
           id="g24"><path
             id="path26"
             style="fill:#231f20;fill-opacity:1;fill-rule:nonzero;stroke:none"
             d="m 0,0 c -0.091,0 -0.187,-0.022 -0.278,-0.063 -0.131,-0.06 -0.24,-0.156 -0.295,-0.263 -0.022,-0.041 -0.053,-0.119 -0.026,-0.181 0.032,-0.069 0.14,-0.115 0.269,-0.115 0.092,0 0.187,0.022 0.278,0.063 0.132,0.06 0.24,0.156 0.296,0.264 0.022,0.04 0.053,0.118 0.025,0.18 C 0.237,-0.046 0.13,0 0,0 m -0.33,-1.547 0,0 c -0.502,0 -0.928,0.253 -1.11,0.658 -0.139,0.305 -0.122,0.667 0.046,0.991 0.152,0.29 0.412,0.531 0.733,0.677 C 0.029,1.091 0.847,0.852 1.111,0.268 1.25,-0.038 1.233,-0.399 1.064,-0.723 0.913,-1.014 0.652,-1.255 0.331,-1.401 0.12,-1.497 -0.108,-1.547 -0.33,-1.547"
             inkscape:connector-curvature="0" /></g><g
           transform="translate(528.3262,538.4746)"
           id="g28"><path
             id="path30"
             style="fill:#231f20;fill-opacity:1;fill-rule:nonzero;stroke:none"
             d="m 0,0 c -0.101,0 -0.214,-0.03 -0.318,-0.084 -0.246,-0.126 -0.324,-0.312 -0.315,-0.353 0.007,-0.003 0.257,-0.054 0.467,0.054 0.246,0.125 0.322,0.311 0.313,0.353 C 0.145,-0.029 0.098,0 0,0 m -0.484,-1.393 0,0 c -0.437,0 -0.801,0.201 -0.973,0.537 -0.146,0.284 -0.133,0.628 0.035,0.945 0.141,0.266 0.383,0.498 0.681,0.65 0.655,0.335 1.443,0.177 1.713,-0.35 C 1.118,0.104 1.105,-0.24 0.937,-0.556 0.796,-0.823 0.555,-1.054 0.256,-1.207 0.02,-1.328 -0.237,-1.393 -0.484,-1.393"
             inkscape:connector-curvature="0" /></g><g
           transform="translate(418.6045,581.0117)"
           id="g32"><path
             id="path34"
             style="fill:#231f20;fill-opacity:1;fill-rule:nonzero;stroke:none"
             d="m 0,0 c -0.165,0.032 -0.343,-0.044 -0.477,-0.218 -0.088,-0.116 -0.138,-0.252 -0.137,-0.372 0,-0.046 0.01,-0.13 0.064,-0.171 l 0.057,-0.026 c 0.115,-0.022 0.306,0.053 0.448,0.237 0.177,0.231 0.161,0.476 0.073,0.544 C 0.02,-0.004 0.01,-0.001 0,0 m -0.67,-1.694 0,0 c -0.164,0.031 -0.313,0.098 -0.444,0.198 -0.266,0.205 -0.422,0.532 -0.425,0.897 -0.004,0.328 0.113,0.663 0.328,0.944 0.46,0.6 1.291,0.776 1.803,0.383 C 1.115,0.326 1.159,-0.5 0.688,-1.113 0.346,-1.56 -0.187,-1.788 -0.67,-1.694"
             inkscape:connector-curvature="0" /></g><g
           transform="translate(558.4619,631.9277)"
           id="g36"><path
             id="path38"
             style="fill:#231f20;fill-opacity:1;fill-rule:nonzero;stroke:none"
             d="m 0,0 c 0.024,-0.004 0.05,-0.006 0.078,-0.006 0.263,0 0.609,0.165 0.937,0.377 C 0.999,0.372 0.984,0.372 0.968,0.372 0.424,0.372 0.149,0.199 0,0 m 0.078,-0.931 0,0 c -0.424,0 -0.781,0.178 -1.032,0.514 -0.09,0.122 -0.115,0.279 -0.068,0.422 0.275,0.833 0.982,1.292 1.99,1.292 0.673,0 1.265,-0.204 1.29,-0.213 C 2.409,1.031 2.521,0.904 2.556,0.748 2.591,0.591 2.542,0.428 2.428,0.316 2.297,0.188 1.118,-0.931 0.078,-0.931"
             inkscape:connector-curvature="0" /></g><g
           transform="translate(549.9775,635.1138)"
           id="g40"><path
             id="path42"
             style="fill:#231f20;fill-opacity:1;fill-rule:nonzero;stroke:none"
             d="M 0,0 C 0.006,0.02 0.009,0.042 0.011,0.066 0.029,0.287 -0.085,0.59 -0.24,0.88 -0.242,0.867 -0.243,0.854 -0.244,0.841 -0.282,0.383 -0.156,0.14 0,0 m 0.789,0 0,0 C 0.76,-0.355 0.584,-0.644 0.284,-0.831 0.176,-0.898 0.041,-0.909 -0.076,-0.859 c -0.682,0.29 -1.018,0.917 -0.946,1.765 0.047,0.566 0.26,1.05 0.269,1.07 0.056,0.123 0.17,0.209 0.305,0.227 0.135,0.019 0.267,-0.034 0.353,-0.138 C 0.003,1.946 0.862,0.875 0.789,0"
             inkscape:connector-curvature="0" /></g><g
           transform="translate(554.9424,635.7354)"
           id="g44"><path
             id="path46"
             style="fill:#231f20;fill-opacity:1;fill-rule:nonzero;stroke:none"
             d="M 0,0 C -0.459,-0.355 -0.925,-0.896 -0.802,-1.577 -0.424,-1.435 -0.152,-0.708 0,0 m -0.936,-2.526 0,0 c -0.099,0 -0.203,0.011 -0.305,0.033 -0.15,0.032 -0.274,0.135 -0.331,0.276 -0.74,1.795 0.974,3.099 1.984,3.538 C 0.559,1.386 0.731,1.368 0.863,1.275 0.995,1.182 1.068,1.027 1.058,0.866 1.035,0.519 0.782,-2.526 -0.936,-2.526"
             inkscape:connector-curvature="0" /></g><g
           transform="translate(416.9111,514.1201)"
           id="g48"><path
             id="path50"
             style="fill:#231f20;fill-opacity:1;fill-rule:nonzero;stroke:none"
             d="M 0,0 -147.701,-128.782 1.084,-0.293 C 0.855,-0.123 0.489,0.05 0,0 m -294.937,-257.007 c -0.129,0 -0.257,0.055 -0.349,0.159 -0.168,0.194 -0.147,0.486 0.045,0.653 l 0.002,0.002 L -0.504,0.788 C -0.439,0.845 -0.36,0.882 -0.275,0.896 1.316,1.159 2.112,-0.021 2.144,-0.065 2.272,-0.26 2.237,-0.52 2.061,-0.672 l -296.695,-256.222 c -0.088,-0.076 -0.195,-0.113 -0.303,-0.113"
             inkscape:connector-curvature="0" /></g><g
           transform="translate(562.7119,632.3311)"
           id="g52"><path
             id="path54"
             style="fill:#231f20;fill-opacity:1;fill-rule:nonzero;stroke:none"
             d="m 0,0 c -0.628,-1.554 -2.198,-2.167 -6.669,-2.593 -0.552,0.468 -3.61,2.899 -7.867,3.243 -0.277,2.143 -0.227,4.224 0.122,4.46 l 0.154,0.102 c 0.428,0.284 0.87,0.577 1.328,0.577 0.482,0 0.986,-0.326 1.54,-0.995 0.364,-0.438 0.742,-0.651 1.157,-0.651 0.527,0 0.952,0.345 1.402,0.711 0.527,0.427 1.072,0.869 1.838,0.869 0.467,0 0.991,-0.169 1.56,-0.502 C -4.909,4.913 -4.832,4.452 -4.769,3.729 -4.705,3.006 -4.618,2.016 -3.326,1.896 -2.459,1.815 -0.427,1.626 0.025,0.883 0.074,0.802 0.225,0.556 0,0 m -9.253,-5.073 c -1.199,1.563 -5.117,2.727 -7.646,3.338 l 2.259,1.47 c 3.473,-0.272 6.163,-2.098 7.093,-2.811 z M -25.557,-23.98 -62.229,-54.004 c -0.97,2.223 -3.367,3.482 -5.685,4.197 -1.118,0.365 -2.445,0.654 -4.012,0.82 -0.093,0.01 -0.19,0.022 -0.275,0.03 2.676,2.462 10.414,9.953 17.929,17.227 7.2,6.97 14.645,14.176 15.16,14.545 0.83,0.581 14.618,10.224 21.101,14.757 4.559,-1.009 7.854,-2.408 8.162,-3.457 z m -41.139,-34.363 -0.134,0.003 c -1.892,0.08 -5.925,1.414 -8.403,2.803 -0.663,0.48 -1.341,1.041 -2.028,1.694 -0.003,0.008 -0.008,0.015 -0.01,0.022 -0.586,1.51 2.698,3.401 4.036,4.016 0.398,-0.023 0.769,-0.061 1.138,-0.099 0.828,-0.095 1.988,-0.271 3.209,-0.593 4.483,-1.254 5.73,-3.723 5.957,-4.287 -0.228,-0.666 -1.359,-3.559 -3.765,-3.559 m 34.851,-30.73 c 0.137,-0.117 0.328,-0.145 0.491,-0.071 0.022,0.01 2.174,0.973 3.845,0.973 0.638,0 1.101,-0.14 1.377,-0.416 0.274,-0.273 -0.05,-2.043 -0.678,-3.712 -0.035,-0.093 -0.038,-0.194 -0.011,-0.289 l 1.043,-3.684 -5.726,1.203 c -0.031,0.006 -0.062,0.009 -0.095,0.009 -0.057,0 -0.115,-0.01 -0.17,-0.031 -0.018,-0.008 -1.923,-0.749 -3.578,-0.749 -0.553,0 -1.01,0.083 -1.359,0.247 -0.325,0.153 -0.514,0.354 -0.576,0.613 -0.144,0.6 0.371,1.433 0.581,1.703 0.007,0.008 0.008,0.019 0.013,0.028 0.005,0.007 0.013,0.009 0.017,0.016 0.013,0.021 0.015,0.045 0.025,0.067 0.01,0.027 0.023,0.053 0.029,0.082 0.008,0.036 0.007,0.07 0.005,0.106 0,0.02 0.006,0.04 0.003,0.06 -10e-4,0.005 -0.005,0.01 -0.007,0.016 -0.007,0.037 -0.024,0.071 -0.04,0.106 -0.01,0.021 -0.016,0.043 -0.029,0.062 -0.021,0.03 -0.05,0.054 -0.078,0.079 -0.017,0.015 -0.028,0.035 -0.048,0.048 l -33.462,22.21 c -0.555,3.976 -9.414,12.418 -23.042,12.418 -1.831,0 -3.707,-0.156 -5.577,-0.463 l -41.594,6.733 c -0.036,0.006 -0.073,0 -0.109,-0.003 -0.019,-0.002 -0.04,0.002 -0.059,-0.002 -0.046,-0.01 -0.087,-0.03 -0.128,-0.053 -0.011,-0.006 -0.024,-0.007 -0.032,-0.014 -0.003,-0.002 -0.006,-0.002 -0.008,-0.004 -0.801,-0.55 -3.277,-2.029 -4.676,-1.866 -0.275,0.032 -0.479,0.146 -0.64,0.358 -0.477,0.625 -0.41,1.898 -0.344,2.336 0.028,0.186 -0.058,0.37 -0.219,0.466 l -4.831,2.902 6.122,0.621 c 0.1,0.01 0.196,0.053 0.269,0.122 1.014,0.95 2.992,2.456 3.982,2.456 0.084,0 0.156,-0.011 0.215,-0.034 0.945,-0.363 1.444,-2.384 1.544,-3.062 0.03,-0.209 0.199,-0.37 0.408,-0.393 l 60.999,-6.552 c 0.381,-0.632 1.214,-1.285 2.28,-1.899 3.692,-2.649 6.953,-2.99 8.348,-2.99 0.329,0 0.584,0.018 0.75,0.034 z m -39.296,17.421 0.468,0.41 13.038,-8.654 z m -60.423,-51.748 c -2.581,3.385 -7.083,5.767 -11.584,7.412 -3.455,1.426 -7.69,2.637 -12.732,3.193 l 57.184,53.433 c 1.177,0.073 2.341,0.11 3.46,0.11 17.938,0 23.151,-9.505 23.967,-11.282 z m -92.586,-81.412 c -0.092,-0.041 -0.163,-0.105 -0.211,-0.186 -101.218,-88.997 -249.929,-219.734 -254.621,-223.751 -7.04,-6.025 -40.348,-21.083 -45.214,-21.083 -0.138,0 -0.218,0.014 -0.249,0.014 -0.006,0 -0.01,0 -0.013,-0.001 -0.95,2.488 18.101,32.967 23.557,37.668 5.387,4.639 335.262,290.84 344.113,298.518 1.193,-0.16 7.713,-1.11 13.988,-3.504 6.071,-2.638 9.502,-5.877 10.499,-6.91 -4.19,-3.684 -42.307,-37.205 -91.849,-80.765 m 0.486,-0.804 c 46.973,16.04 102.497,34.708 136.703,46.175 -36.378,-13.29 -96.928,-35.414 -144.075,-52.657 2.481,2.181 4.943,4.346 7.372,6.482 m 62.131,48.131 c 4.641,0.999 9.44,2.032 14.056,3.581 3.482,1.168 7,2.519 10.403,3.826 5.372,2.064 10.926,4.198 16.579,5.712 3.576,0.958 7.25,1.647 10.804,2.315 5.824,1.094 11.847,2.226 17.717,4.574 10.389,4.157 20.383,8.44 29.707,12.731 8.242,3.792 20.444,9.015 31.224,10.579 5.207,0.756 10.582,0.079 14.743,-1.857 4.823,-2.244 5.566,-5.566 5.291,-11.299 -0.149,-3.125 -0.642,-6.211 -1.12,-9.196 -0.304,-1.895 -0.617,-3.855 -0.835,-5.789 -0.108,-0.962 -0.027,-2.054 0.052,-3.111 0.124,-1.654 0.251,-3.364 -0.335,-4.572 -0.403,-0.83 -1.144,-1.214 -1.928,-1.62 -0.925,-0.48 -1.973,-1.023 -2.346,-2.377 l 0.672,-0.184 c 0.898,-8.4 -0.788,-14.677 -3.999,-22.613 -0.25,-0.615 -0.495,-1.282 -0.749,-1.972 -1.057,-2.872 -2.256,-6.127 -4.484,-7.705 -2.763,-1.956 -6.648,-1.865 -10.073,-1.789 l -3.124,0.057 1.881,-0.913 c 0.893,-0.435 1.777,-0.655 2.712,-0.887 0.148,-0.037 0.298,-0.074 0.451,-0.113 l -0.023,-0.032 0.018,-0.175 c 0.175,-1.763 -5.64,-5.81 -8.123,-7.539 -0.788,-0.547 -1.409,-0.98 -1.765,-1.263 -3.817,-3.044 -8.142,-5.616 -12.324,-8.104 l -0.999,-0.594 c -3.263,-1.945 -5.686,-4.177 -8.251,-6.541 -0.939,-0.866 -1.908,-1.76 -2.931,-2.646 -3.911,-3.395 -9.825,-4.657 -14.097,-5.12 -7.884,-0.853 -15.991,0.207 -23.829,1.232 -2.652,0.348 -5.396,0.706 -8.062,0.981 -2.732,0.279 -5.526,0.355 -8.228,0.429 -3.228,0.088 -6.566,0.179 -9.798,0.621 -1.084,0.147 -2.201,0.248 -3.28,0.344 -2.017,0.182 -4.104,0.368 -6.041,0.877 -1.223,0.322 -2.452,0.964 -3.639,1.586 -1.339,0.7 -2.724,1.425 -4.124,1.7 l -0.244,-0.89 c 1.968,-0.691 3.87,-1.643 5.708,-2.564 2.002,-1.003 4.072,-2.04 6.27,-2.766 5.255,-1.739 10.827,-3.062 15.638,-4.165 5.529,-1.27 10.962,-1.162 16.219,-1.059 2.171,0.044 4.405,0.088 6.641,0.035 -0.092,-0.074 -0.185,-0.148 -0.278,-0.223 -0.261,-0.208 -0.526,-0.419 -0.78,-0.656 -2.235,-2.069 -5.527,-3.421 -8.711,-4.727 -1.651,-0.678 -3.212,-1.319 -4.64,-2.055 -5.439,-2.804 -9.762,-4.637 -13.604,-5.771 -2.518,-0.744 -4.882,-1.772 -7.169,-2.766 -2.123,-0.924 -4.128,-1.796 -6.228,-2.449 -2.666,-0.828 -5.426,-1.577 -8.095,-2.301 -2.231,-0.605 -4.536,-1.231 -6.791,-1.904 l -0.013,-0.001 c -0.196,-0.005 -0.656,-0.019 -0.664,-0.469 0,-0.017 0,-0.032 0.001,-0.048 -3.738,-3.844 -12.784,-6.117 -18.254,-7.491 l -0.439,-0.11 c -2.844,-0.716 -5.653,-0.844 -8.629,-0.981 l -1.072,-0.049 c -0.564,-0.028 -1.303,-0.022 -2.087,-0.015 -2.576,0.017 -5.785,0.045 -7.267,-0.971 l -0.719,-0.493 0.812,-0.319 c 0.457,-0.179 0.945,-0.336 1.454,-0.463 -3.242,-0.682 -6.787,-0.902 -10.236,-1.116 -2.998,-0.186 -6.1,-0.38 -9.004,-0.871 l -1.742,-0.295 1.663,-0.596 c 0.275,-0.099 0.551,-0.187 0.828,-0.264 -9.311,-1.439 -18.79,0.791 -27.984,2.952 -4.534,1.066 -9.222,2.168 -13.751,2.782 l -0.174,-0.908 c 0.283,-0.069 0.584,-0.224 0.868,-0.388 -0.651,-0.276 -1.267,-0.581 -1.869,-0.878 -0.906,-0.447 -1.761,-0.871 -2.7,-1.19 l -0.988,-0.336 0.912,-0.507 c 0.194,-0.106 0.344,-0.216 0.486,-0.318 0.107,-0.077 0.215,-0.154 0.333,-0.229 l -0.034,-0.198 c -0.944,-0.015 -1.908,0.154 -2.822,0.314 -0.848,0.148 -1.726,0.3 -2.618,0.317 l -1.334,0.022 1.032,-0.843 c 2.055,-1.68 6.223,-2.366 9.357,-2.647 1.647,-0.147 3.258,-0.4 4.814,-0.646 0.818,-0.129 1.649,-0.259 2.487,-0.375 -2.04,-0.411 -4.915,-0.763 -8.084,-1.152 -11.622,-1.42 -26.085,-3.19 -25.365,-10.087 l 0.027,-0.25 0.221,-0.113 c 2.521,-1.305 4.615,-2.311 7.05,-3.225 -0.519,-0.096 -1.022,-0.214 -1.518,-0.331 -1.08,-0.255 -2.194,-0.518 -3.419,-0.524 -1.361,0.013 -2.734,0.34 -4.06,0.674 -0.999,0.253 -2.033,0.514 -3.069,0.628 -5.027,0.557 -10.941,0.19 -15.818,-0.979 -2.819,-0.675 -5.645,-1.718 -8.379,-2.727 -2.893,-1.068 -5.869,-2.16 -8.824,-2.811 28.422,24.987 57.252,50.335 83.431,73.353 72.306,26.444 178.177,65.114 178.177,65.114 0.237,0.087 0.361,0.349 0.278,0.588 -0.084,0.238 -0.346,0.367 -0.584,0.286 -0.937,-0.313 -93.583,-31.246 -166.763,-56.223 18.888,16.609 36.068,31.715 50.256,44.191 l 0.006,-0.024 c 3.32,0.917 6.742,1.654 10.051,2.367 m -195.466,-126.988 c -1.202,0.509 -2.189,1.102 -3.236,1.729 -1.009,0.605 -2.053,1.231 -3.289,1.764 -0.735,0.316 -1.729,0.486 -2.783,0.666 -1.744,0.298 -3.722,0.636 -4.219,1.679 l -0.188,0.392 -0.403,-0.162 c -2.313,-0.93 -4.07,-0.49 -5.77,-0.065 -1.723,0.432 -3.508,0.877 -5.702,-0.151 -1.999,-0.938 -3.624,-2.181 -5.195,-3.383 -1.376,-1.053 -2.799,-2.142 -4.443,-2.988 -2.774,-1.43 -5.429,-1.904 -8.409,-2.333 37.881,19.436 75.755,38.558 96.844,47.38 -17.193,-14.917 -34.734,-30.134 -51.918,-45.042 -0.429,0.163 -0.858,0.332 -1.289,0.514 m -70.028,-15.386 c -44.098,-22.71 -89.659,-46.173 -94.655,-46.173 -0.06,0 -0.113,0.003 -0.162,0.01 1.629,3.503 37.958,23.588 97.554,53.922 51.361,26.144 103.046,51.281 114.943,56.29 2.962,1.248 9.053,3.521 18.117,6.763 -3.436,-2.98 -6.891,-5.978 -10.363,-8.991 -25.053,-10.126 -78.378,-37.588 -125.434,-61.821 m 4.428,12.995 c 3.652,2.657 8.038,4.189 12.297,5.677 2.609,0.912 5.073,1.773 7.38,2.874 1.452,0.693 3.435,1.934 4.512,2.826 0.412,0.341 0.716,0.849 1.008,1.341 0.356,0.598 0.725,1.218 1.263,1.49 0.354,0.179 0.912,0.135 1.452,0.094 0.655,-0.051 1.331,-0.104 1.856,0.208 0.66,0.394 0.925,1.075 1.159,1.675 0.162,0.418 0.317,0.812 0.559,0.973 0.542,0.357 1.062,0.396 1.614,0.438 0.412,0.032 0.837,0.064 1.243,0.241 1.961,0.857 3.269,1.647 3.213,4.419 0.478,-0.02 0.917,-0.122 1.346,-0.224 1.053,-0.247 2.142,-0.503 3.412,0.615 1.04,0.916 2.354,4.28 2.41,4.423 1.831,4.713 2.433,8.232 1.839,10.759 l -0.067,0.282 -0.282,0.064 c -0.729,0.164 -1.437,0.184 -2.087,0.064 3.785,4.954 10.038,8.311 15.604,11.299 1.017,0.547 2.014,1.081 2.968,1.611 4.899,2.721 8.676,5.07 11.884,7.392 2.062,1.491 3.57,3.556 5.029,5.553 0.941,1.29 1.915,2.622 3.035,3.803 6.545,6.901 15.864,9.211 24.878,11.446 l 0.419,0.103 c 3.439,0.853 7.059,1.49 10.56,2.107 6.111,1.076 12.43,2.189 18.169,4.496 2.469,0.992 4.477,2.773 6.419,4.495 1.317,1.169 2.679,2.377 4.154,3.303 2.3,1.445 4.666,2.229 7.17,3.059 2.047,0.679 4.164,1.381 6.219,2.474 8.817,4.688 18.577,6.379 27.113,7.35 -16.84,-14.611 -35.427,-30.736 -54.722,-47.476 l -0.044,0.122 c -10.147,-3.616 -16.905,-6.128 -20.088,-7.469 -11.269,-4.744 -58.145,-27.503 -106.665,-52.083 -1.429,1.066 -4.064,0.587 -6.229,0.176 m 303.619,230.736 19.084,-3.089 -0.75,-0.702 c -0.036,0.018 -0.069,0.038 -0.11,0.046 z M 0.816,1.364 c -0.577,0.946 -2.039,1.265 -4.057,1.453 -0.482,0.045 -0.537,0.204 -0.607,0.994 -0.06,0.69 -0.143,1.637 -1.12,2.209 -0.722,0.422 -1.386,0.628 -2.027,0.628 -1.094,0 -1.86,-0.622 -2.42,-1.076 -0.32,-0.259 -0.622,-0.504 -0.82,-0.504 -0.151,0 -0.325,0.173 -0.445,0.317 -0.741,0.894 -1.477,1.328 -2.252,1.328 -0.737,0 -1.347,-0.404 -1.839,-0.729 l -0.148,-0.098 c -1.016,-0.662 -0.743,-3.798 -0.531,-5.393 -2.431,-1.701 -23.169,-16.203 -24.193,-16.92 -0.507,-0.356 -6.109,-5.767 -15.273,-14.638 -8.115,-7.856 -17.298,-16.745 -18.656,-17.877 -0.705,-0.318 -4.723,-2.239 -4.684,-4.53 l -60.291,6.476 c -0.173,0.863 -0.719,2.918 -2.065,3.436 -0.165,0.063 -0.35,0.095 -0.547,0.095 -1.543,0 -3.897,-2.051 -4.497,-2.598 l -7.354,-0.747 c -0.198,-0.02 -0.362,-0.164 -0.405,-0.359 -0.043,-0.194 0.042,-0.394 0.213,-0.497 l 5.769,-3.464 c -0.052,-0.603 -0.074,-1.893 0.558,-2.723 0.311,-0.408 0.749,-0.655 1.269,-0.717 1.749,-0.206 4.444,1.456 5.142,1.912 l 39.01,-8.016 -55.79,-52.13 c -1.102,-0.955 -32.713,-28.382 -76.372,-66.259 l -0.252,-0.03 c -8.872,-0.962 -19.2,-2.614 -28.531,-7.575 -1.985,-1.056 -4.064,-1.745 -6.075,-2.412 -2.446,-0.811 -4.976,-1.649 -7.371,-3.153 -1.54,-0.968 -2.93,-2.202 -4.276,-3.395 -1.97,-1.747 -3.83,-3.397 -6.15,-4.329 -5.65,-2.271 -11.92,-3.375 -17.984,-4.442 -3.516,-0.62 -7.153,-1.26 -10.622,-2.121 l -0.42,-0.104 c -8.717,-2.16 -18.596,-4.609 -25.326,-11.706 -1.161,-1.224 -2.153,-2.582 -3.111,-3.894 -1.482,-2.029 -2.881,-3.944 -4.824,-5.35 -3.178,-2.299 -6.924,-4.629 -11.792,-7.332 -0.95,-0.529 -1.942,-1.061 -2.956,-1.605 -6.116,-3.284 -13.048,-7.006 -16.816,-12.851 l -1.209,-1.877 1.855,1.241 c 0.695,0.465 1.611,0.624 2.6,0.462 0.439,-2.322 -0.172,-5.573 -1.861,-9.922 -0.493,-1.271 -1.516,-3.498 -2.159,-4.063 -0.914,-0.804 -1.618,-0.638 -2.589,-0.41 -0.6,0.14 -1.278,0.304 -2.078,0.237 l -0.458,-0.036 0.033,-0.457 c 0.184,-2.633 -0.778,-3.179 -2.638,-3.992 -0.263,-0.114 -0.577,-0.138 -0.942,-0.166 -0.585,-0.044 -1.313,-0.098 -2.055,-0.591 -0.488,-0.322 -0.703,-0.874 -0.911,-1.407 -0.197,-0.507 -0.384,-0.985 -0.771,-1.215 -0.272,-0.162 -0.799,-0.121 -1.31,-0.082 -0.667,0.052 -1.357,0.106 -1.941,-0.19 -0.778,-0.394 -1.237,-1.163 -1.641,-1.843 -0.265,-0.444 -0.514,-0.862 -0.803,-1.101 -1.028,-0.85 -2.926,-2.038 -4.32,-2.705 -2.262,-1.079 -4.702,-1.931 -7.287,-2.834 -4.9,-1.712 -9.967,-3.482 -13.997,-6.959 l -1.14,-0.984 1.495,0.174 c 0.496,0.057 1.099,0.172 1.736,0.293 1.681,0.318 3.888,0.735 5.15,0.246 -2.447,-1.24 -4.897,-2.484 -7.346,-3.731 -44.125,-22.459 -96.958,-50.171 -98.077,-54.646 -0.081,-0.323 0.008,-0.617 0.244,-0.804 0.132,-0.104 0.347,-0.156 0.648,-0.156 5.035,0 34.037,14.652 95.29,46.197 7.718,3.975 15.604,8.037 23.506,12.093 l 0.003,-0.022 c 0.543,0.081 1.077,0.156 1.604,0.23 3.327,0.468 6.47,0.909 9.688,2.568 1.717,0.883 3.173,1.998 4.581,3.075 1.533,1.173 3.117,2.385 5.026,3.28 1.896,0.89 3.374,0.52 5.085,0.092 1.673,-0.418 3.556,-0.889 5.97,-0.035 0.864,-1.172 2.8,-1.503 4.679,-1.824 0.997,-0.17 1.939,-0.332 2.571,-0.604 1.18,-0.509 2.197,-1.118 3.18,-1.708 1.027,-0.615 2.09,-1.253 3.351,-1.786 0.289,-0.123 0.576,-0.232 0.864,-0.345 -74.795,-64.888 -142.591,-123.699 -145.008,-125.781 -5.133,-4.421 -23.827,-33.437 -23.888,-38.21 -0.004,-0.372 0.095,-0.652 0.296,-0.835 0.198,-0.179 0.483,-0.262 0.9,-0.262 5.479,0 39.303,15.731 45.816,21.306 3.352,2.87 80.134,70.348 160.621,141.106 3.54,0.58 7.087,1.884 10.519,3.151 2.708,0.999 5.508,2.033 8.274,2.696 4.779,1.145 10.571,1.503 15.5,0.958 0.974,-0.107 1.931,-0.349 2.945,-0.605 1.381,-0.348 2.831,-0.687 4.29,-0.703 1.331,0.007 2.498,0.283 3.627,0.548 1.146,0.272 2.247,0.532 3.444,0.505 l 3.052,-0.055 -2.899,0.956 c -3.228,1.066 -5.653,2.191 -8.685,3.754 -0.212,5.798 14.09,7.548 24.572,8.83 4.704,0.577 8.766,1.073 10.57,1.836 l 1.732,0.732 -1.873,0.155 c -1.602,0.133 -3.155,0.377 -4.798,0.636 -1.573,0.248 -3.198,0.504 -4.876,0.654 -1.792,0.16 -4.625,0.527 -6.794,1.338 0.039,-0.007 0.076,-0.014 0.114,-0.02 1.148,-0.201 2.332,-0.408 3.611,-0.299 l 2.189,0.185 -1.391,0.478 c 0.001,0.001 0.002,0.002 0.003,0.002 l 0.177,-0.017 0.44,0.495 -0.235,0.308 c -0.146,0.191 -0.323,0.21 -0.509,0.159 -0.404,0.056 -0.628,0.166 -0.86,0.321 0.679,0.282 1.326,0.601 1.958,0.914 0.854,0.422 1.739,0.859 2.69,1.195 l 1.094,0.385 -0.041,0.018 c 3.51,-0.62 7.081,-1.46 10.562,-2.277 10.159,-2.388 20.667,-4.857 31.02,-2.45 l 3.447,0.803 -3.537,0.111 c -0.309,0.01 -0.614,0.033 -0.916,0.067 2.137,0.249 4.341,0.386 6.493,0.519 4.271,0.265 8.687,0.54 12.564,1.683 l 2.328,0.686 -2.418,0.218 c -0.784,0.071 -1.554,0.207 -2.272,0.403 1.527,0.402 3.87,0.386 5.689,0.37 0.797,-0.006 1.551,-0.012 2.14,0.016 l 1.07,0.05 c 3.022,0.138 5.878,0.269 8.812,1.007 l 0.439,0.11 c 5.685,1.429 15.16,3.81 18.941,8.011 2.253,0.673 4.562,1.3 6.796,1.906 2.677,0.727 5.445,1.478 8.127,2.312 2.149,0.667 4.272,1.59 6.323,2.483 2.261,0.984 4.599,2 7.062,2.727 3.899,1.151 8.273,3.006 13.766,5.837 1.393,0.718 2.935,1.35 4.568,2.021 3.26,1.338 6.63,2.722 8.988,4.905 0.237,0.219 0.485,0.417 0.728,0.61 0.403,0.322 0.82,0.655 1.179,1.075 l 0.62,0.726 -0.954,0.037 c -2.633,0.101 -5.262,0.05 -7.803,-0.001 -5.44,-0.106 -10.577,-0.207 -15.995,1.035 -4.789,1.099 -10.336,2.416 -15.553,4.143 -0.559,0.184 -1.11,0.39 -1.657,0.613 1.119,-0.155 2.247,-0.257 3.353,-0.356 1.07,-0.095 2.174,-0.195 3.238,-0.34 3.282,-0.449 6.645,-0.539 9.898,-0.629 2.685,-0.073 5.461,-0.149 8.159,-0.425 2.653,-0.273 5.39,-0.631 8.036,-0.977 7.893,-1.033 16.054,-2.101 24.048,-1.235 4.403,0.477 10.512,1.79 14.606,5.341 1.031,0.895 2.007,1.795 2.951,2.664 2.528,2.331 4.917,4.532 8.096,6.427 l 0.998,0.594 c 4.21,2.503 8.563,5.092 12.428,8.175 0.332,0.265 0.944,0.69 1.717,1.228 4.313,3.001 8.508,6.101 8.522,8.224 0.142,0.288 0.123,0.603 -0.062,0.888 l -0.097,0.149 -0.173,0.046 c -0.127,0.034 -0.251,0.066 -0.374,0.097 2.969,0.001 6.054,0.279 8.471,1.99 2.463,1.745 3.715,5.144 4.818,8.142 0.251,0.68 0.493,1.337 0.739,1.944 3.31,8.182 5.03,14.633 4.028,23.401 l -0.482,-0.055 c 0.347,0.647 0.978,0.982 1.695,1.353 0.843,0.437 1.797,0.931 2.334,2.037 0.696,1.433 0.559,3.269 0.426,5.045 -0.079,1.062 -0.155,2.065 -0.056,2.939 0.216,1.913 0.528,3.862 0.829,5.747 0.482,3.01 0.98,6.121 1.132,9.297 0.288,6.01 -0.556,9.731 -5.825,12.182 -4.32,2.01 -9.885,2.715 -15.267,1.934 -10.898,-1.581 -23.184,-6.838 -31.477,-10.654 -9.31,-4.284 -19.29,-8.561 -29.664,-12.712 -5.786,-2.315 -11.764,-3.438 -17.545,-4.524 -3.571,-0.67 -7.262,-1.364 -10.872,-2.331 -5.701,-1.526 -11.278,-3.669 -16.672,-5.741 -3.394,-1.304 -6.903,-2.651 -10.365,-3.813 -4.567,-1.533 -9.34,-2.56 -13.957,-3.554 -2.746,-0.591 -5.567,-1.206 -8.354,-1.92 23.196,20.397 38.048,33.456 38.748,34.072 l 0.001,0 59.464,52.137 34.15,-20.844 c -0.285,-0.481 -0.646,-1.285 -0.464,-2.056 0.089,-0.374 0.349,-0.892 1.083,-1.238 0.473,-0.222 1.062,-0.335 1.753,-0.335 1.586,0 3.299,0.584 3.785,0.763 l 6.342,-1.333 c 0.032,-0.007 0.063,-0.01 0.095,-0.01 l 0.007,0 c 0.287,0.002 0.469,0.205 0.469,0.463 0,0.082 -0.022,0.159 -0.059,0.226 l -1.182,4.175 c 0.44,1.198 1.231,3.73 0.411,4.548 -0.455,0.456 -1.138,0.687 -2.03,0.687 -1.514,0 -3.282,-0.662 -3.952,-0.938 l -33.993,29.122 c 2.218,0.754 3.201,3.375 3.41,4.014 l 37.104,30.377 c 0.02,0.017 0.039,0.035 0.056,0.055 l 18.319,21.102 c 4.328,0.412 6.549,1.007 7.423,3.167 0.265,0.655 0.25,1.23 -0.042,1.711"
             inkscape:connector-curvature="0" /></g><g
           transform="translate(516.7061,444.5439)"
           id="g56"><path
             id="path58"
             style="fill:#231f20;fill-opacity:1;fill-rule:nonzero;stroke:none"
             d="m 0,0 c -2.458,0 -14.969,0.189 -23.591,3.897 -0.128,0.055 -0.191,0.214 -0.141,0.356 0.05,0.142 0.194,0.212 0.323,0.156 C -13.95,0.341 0.278,0.549 0.419,0.552 l 0.004,0 C 0.559,0.552 0.67,0.431 0.673,0.281 0.674,0.129 0.564,0.004 0.427,0.002 0.413,0.002 0.265,0 0,0"
             inkscape:connector-curvature="0" /></g><g
           transform="translate(501.9004,581.7158)"
           id="g112"><path
             id="path114"
             style="fill:#231f20;fill-opacity:1;fill-rule:nonzero;stroke:none"
             d="M 0,0 C -0.134,0 -0.268,0.058 -0.358,0.171 -0.52,0.369 -0.49,0.66 -0.292,0.821 l 33.914,27.555 12.702,14.819 c 0.166,0.194 0.457,0.217 0.652,0.05 0.194,-0.166 0.216,-0.458 0.05,-0.652 L 34.297,27.742 c -0.018,-0.021 -0.038,-0.04 -0.06,-0.058 L 0.292,0.104 C 0.206,0.034 0.103,0 0,0"
             inkscape:connector-curvature="0" /></g><path
           style="fill:#000000;stroke-width:1.16497"
           d="m 291.9586,390.50808 c 2.3159,-2.05571 26.57414,-23.38213 53.9072,-47.39206 l 49.69648,-43.65441 118.45755,-43.27425 c 99.26203,-36.26185 124.21741,-45.91007 118.74765,-45.91007 -0.60282,0 -193.60342,64.91794 -209.20589,70.36878 -4.75349,1.66066 -8.79696,2.86514 -8.98548,2.67663 -0.18852,-0.18853 13.79238,-12.77705 31.06867,-27.9745 l 31.41145,-27.63174 14.46351,-3.43621 c 7.95492,-1.88991 23.04162,-6.54491 33.52599,-10.34443 11.81017,-4.27999 25.03319,-8.09924 34.75626,-10.03876 16.85953,-3.36308 25.24326,-6.36323 57.1955,-20.4676 27.79457,-12.26909 41.14603,-16.52764 52.27844,-16.67462 7.26072,-0.0959 9.61594,0.37273 13.93654,2.77277 6.94005,3.85512 7.88613,7.28018 6.06803,21.96805 -0.76313,6.16513 -1.38245,13.63916 -1.37627,16.60895 0.009,4.53938 -0.47252,5.7166 -3.02519,7.38918 -2.52156,1.65218 -2.91671,2.58809 -2.33044,5.51945 1.6645,8.3225 -5.91906,34.44005 -11.66995,40.19094 -2.23018,2.23019 -3.8982,2.66179 -10.28706,2.66179 -7.63526,0 -10.19745,1.63997 -4.71283,3.01652 1.60184,0.40204 2.91243,1.19463 2.91243,1.76133 0,1.29496 -14.27861,11.86768 -25.04688,18.54616 -4.48514,2.7817 -11.4434,7.90087 -15.4628,11.37596 -13.31209,11.50933 -21.62138,12.81119 -58.51287,9.16749 -10.57211,-1.04418 -24.76321,-2.3707 -31.53578,-2.94783 -8.59467,-0.73239 -13.77048,-1.79248 -17.13691,-3.5099 -5.51816,-2.81516 -6.08095,-2.92805 -6.08095,-1.21982 0,2.15128 16.83038,9.12385 29.33681,12.15379 8.88996,2.15378 15.19388,2.91241 24.21026,2.91353 10.51129,10e-4 11.9556,0.22737 10.48474,1.64117 -4.18489,4.02253 -44.41376,20.50935 -61.59535,25.24335 -4.86409,1.3402 -10.80327,3.70652 -13.1982,5.25851 -7.75958,5.02848 -21.33688,8.76359 -34.46951,9.48253 -8.19702,0.44874 -12.56534,1.19432 -13.71124,2.34023 -1.07601,1.076 -5.94227,2.05174 -13.51166,2.70923 -6.6055,0.57376 -12.19736,1.62199 -12.66185,2.37355 -1.16068,1.87802 -13.17775,0.49651 -32.24628,-3.70716 -15.90865,-3.50707 -20.09899,-4.03362 -20.11169,-2.52722 -0.0126,1.49819 -7.02715,4.95113 -10.05805,4.95113 -6.54614,0 0.26446,3.40589 10.64791,5.32488 4.31669,0.79778 3.85157,0.97478 -6.31542,2.40332 -19.7596,2.77639 -28.05123,6.36263 -28.05123,12.13254 0,1.56581 1.24305,2.90885 3.61562,3.90644 4.98376,2.09551 1.70473,3.20101 -4.9284,1.66158 -8.06067,-1.87073 -23.6676,-0.50671 -33.95213,2.96736 -4.97918,1.68195 -9.43519,3.03628 -9.90225,3.0096 -0.46706,-0.0267 1.04562,-1.73044 3.36152,-3.78616 z M 645.97651,263.86597 c 0,-0.64074 -3.01437,-1.17408 -6.69859,-1.1852 -5.88059,-0.0178 -16.42569,-1.80558 -24.46439,-4.14771 -1.49088,-0.43437 -2.62119,-0.25686 -2.62119,0.41166 0,1.20377 12.49335,4.54379 19.80451,5.29461 8.64264,0.88756 13.97966,0.74502 13.97966,-0.37336 z"
           id="path1454"
           transform="matrix(0.75000002,0,0,-0.75000002,33.569783,642.7941)" /><path
           style="fill:#000000;stroke-width:1.16497"
           d="m 175.32816,380.94557 c 1.50485,-1.60184 3.67473,-2.91243 4.82197,-2.91243 1.14723,0 2.64701,-1.04847 3.33283,-2.32994 0.68582,-1.28147 2.23893,-2.32994 3.45135,-2.32994 1.21241,0 3.19694,-1.26182 4.41005,-2.80404 1.21311,-1.54222 3.47917,-2.98387 5.03568,-3.20367 4.23048,-0.5974 7.46301,-7.94488 7.60462,-17.28516 0.1102,-7.26837 0.27658,-7.68313 4.23279,-10.55188 2.26495,-1.64237 10.07689,-6.36281 17.35986,-10.48986 10.72781,-6.07915 15.23232,-9.52274 23.72652,-18.13838 5.76661,-5.84905 12.13939,-11.47331 14.16173,-12.49834 5.22396,-2.64779 21.93823,-7.34523 33.89532,-9.52606 20.86779,-3.80604 27.96703,-6.26827 35.49692,-12.3114 3.85094,-3.09058 9.43099,-6.50238 12.40011,-7.58177 2.96913,-1.0794 9.36179,-3.70519 14.20593,-5.83509 9.34394,-4.1084 23.15802,-7.79247 27.02082,-7.20616 1.71306,0.26002 -6.83136,8.27996 -32.64534,30.64145 l -34.96573,30.28925 -12.65042,4.51326 c -15.28842,5.45441 -31.81411,13.09605 -88.8515,41.08581 -23.97004,11.76273 -43.85136,21.38678 -44.18074,21.38678 -0.32937,0 0.63238,-1.3106 2.13723,-2.91243 z"
           id="path1493"
           transform="matrix(0.75000002,0,0,-0.75000002,33.569783,642.7941)" /><path
           style="fill:#000000;stroke-width:1.16497"
           d="m 225.42192,390.20269 c -2.8833,-1.50947 -5.86354,-2.76818 -6.62275,-2.79714 -0.7592,-0.029 -2.85615,-0.64834 -4.65988,-1.37641 -1.80373,-0.72808 -5.11434,-1.24263 -7.35691,-1.14347 -10.28645,0.45488 -6.38042,-2.07958 33.4787,-21.72294 41.58065,-20.49175 51.55887,-25.13226 52.34662,-24.34451 0.40561,0.40562 -57.94708,51.69224 -60.77844,53.41863 -0.64073,0.39068 -3.52404,-0.52469 -6.40734,-2.03416 z"
           id="path1532"
           transform="matrix(0.75000002,0,0,-0.75000002,33.569783,642.7941)" /><path
           style="fill:#000000;stroke-width:1.16497"
           d=""
           id="path1571"
           transform="matrix(0.75000002,0,0,-0.75000002,33.569783,642.7941)" /><path
           style="fill:#000000;stroke-width:1.16497"
           d=""
           id="path1610"
           transform="matrix(0.75000002,0,0,-0.75000002,33.569783,642.7941)" /><path
           style="fill:#000000;stroke-width:1.16497"
           d=""
           id="path1649"
           transform="matrix(0.75000002,0,0,-0.75000002,33.569783,642.7941)" /><path
           style="fill:#000000;stroke-width:1.16497"
           d="m 11.072467,604.32879 c 5.145444,-9.54404 17.244121,-28.28439 22.859847,-35.40896 1.84072,-2.33528 29.573859,-26.97442 61.629197,-54.75365 C 127.61685,486.38697 230.56943,397.08042 324.345,315.70718 418.12058,234.33395 495.4303,167.4112 496.14437,166.98998 c 1.52967,-0.90235 13.53051,1.28515 13.53051,2.46632 0,0.44508 -88.33394,77.82151 -196.29764,171.94764 -107.9637,94.12612 -196.29764,171.59778 -196.29764,172.15925 0,0.56147 0.73089,0.74039 1.62419,0.3976 2.08739,-0.80101 386.63835,-332.6592 392.36853,-338.60456 l 4.30987,-4.47172 6.08328,3.67804 c 3.34581,2.02292 5.86239,4.19256 5.59239,4.82142 -0.26999,0.62887 -7.04386,6.94021 -15.05304,14.0252 C 495.80015,207.744 78.280388,574.59269 68.150813,583.39614 c -4.069098,3.5364 -12.784372,8.70125 -23.881909,14.15292 -14.941519,7.34003 -34.9453836,15.80825 -37.3426917,15.80825 -0.3966948,0 1.4691196,-4.06283 4.1462547,-9.02852 z"
           id="path1688"
           transform="matrix(0.75000002,0,0,-0.75000002,33.569783,642.7941)" /><path
           style="fill:#000000;stroke-width:1.16497"
           d="m 527.12351,174.71806 c -2.75718,-2.93488 -19.03873,-9.87464 -23.16715,-9.87464 -1.26432,0 -2.58257,-0.4592 -2.92943,-1.02043 -0.34687,-0.56124 16.0046,-16.59131 36.33659,-35.62238 l 36.96726,-34.601937 8.73728,0.574409 c 4.80551,0.315925 10.68366,1.404119 13.06256,2.418208 5.08092,2.165921 12.56681,8.44625 12.56681,10.543 0,1.13008 -54.55204,49.98609 -75.26413,67.40546 l -3.61841,3.04316 z"
           id="path1727"
           transform="matrix(0.75000002,0,0,-0.75000002,33.569783,642.7941)" /><path
           style="fill:#000000;stroke-width:1.16497"
           d="m 617.40928,81.072919 -5.8503,-3.019851 21.57741,-20.667665 c 14.00489,-13.414418 26.0648,-23.785962 34.36397,-29.553058 7.03262,-4.886966 13.39333,-9.118225 14.13491,-9.402797 0.74158,-0.284572 3.30851,0.301608 5.70427,1.302623 3.81044,1.592104 4.16106,2.054845 2.79976,3.695111 -0.97356,1.173066 -1.71751,1.391101 -1.98709,0.58237 -0.7812,-2.343607 -1.92182,-1.393137 -10.68147,8.900783 -6.02913,7.085147 -15.52112,15.699718 -31.12796,28.250551 -16.31014,13.116426 -22.33074,18.614549 -22.00413,20.094592 0.69035,3.128318 -0.57996,3.094832 -6.92937,-0.182659 z"
           id="path1766"
           transform="matrix(0.75000002,0,0,-0.75000002,33.569783,642.7941)" /><path
           style="fill:#000000;stroke-width:1.16497"
           d="m 664.90729,140.70126 c -2.40486,-0.29844 -3.78616,-1.11587 -3.78616,-2.24058 0,-0.9739 -0.64128,-1.55697 -1.42506,-1.29571 -2.20995,0.73665 -46.48763,-29.03352 -48.77413,-32.79337 -4.95677,-8.15075 -16.4624,-13.130818 -31.28697,-13.542166 -6.12097,-0.169843 -22.57959,-2.197626 -36.5747,-4.506184 -13.9951,-2.308558 -25.9215,-3.903287 -26.50309,-3.543842 -0.58159,0.359445 -1.05744,0.09836 -1.05744,-0.580188 0,-0.678549 -1.08294,-1.233725 -2.40653,-1.233725 -1.32359,0 -3.5516,-0.624415 -4.95113,-1.38759 -2.44111,-1.331157 -2.37922,-1.422263 1.52169,-2.2401 2.29389,-0.480922 4.66065,-0.35923 5.4299,0.279188 0.89909,0.746179 1.64697,0.673205 2.19543,-0.214217 0.5156,-0.834252 1.10862,-0.913741 1.55993,-0.209095 0.40046,0.625252 19.00249,3.094868 41.33785,5.488035 36.84297,3.947615 40.98703,4.607248 44.67732,7.111545 2.23716,1.518183 5.81897,3.088896 7.95956,3.490474 2.8,0.525283 10.34234,6.253982 26.88186,20.417805 12.64442,10.82821 23.68411,19.68766 24.53263,19.68766 0.84853,0 1.54277,0.78635 1.54277,1.74745 0,0.96111 0.72521,1.74746 1.61158,1.74746 0.88637,0 1.88577,1.04848 2.22088,2.32994 0.33512,1.28147 0.26519,2.24605 -0.15537,2.14351 -0.42057,-0.10254 -2.46844,-0.39788 -4.55082,-0.6563 z"
           id="path1805"
           transform="matrix(0.75000002,0,0,-0.75000002,33.569783,642.7941)" /><path
           style="fill:#000000;stroke-width:1.16497"
           d=""
           id="path1844"
           transform="matrix(0.75000002,0,0,-0.75000002,33.569783,642.7941)" /><path
           style="fill:#000000;stroke-width:1.16497"
           d="m 610.44758,89.595426 c -2.56146,-0.944864 -5.37427,-2.435008 -6.25069,-3.311432 -1.34802,-1.348014 -1.11597,-1.906389 1.50632,-3.624578 2.62953,-1.722932 3.77783,-1.827946 7.56871,-0.692171 5.63702,1.688892 7.98558,4.283163 6.30032,6.959457 -1.62658,2.583085 -3.55236,2.72422 -9.12466,0.668724 z"
           id="path1883"
           transform="matrix(0.75000002,0,0,-0.75000002,33.569783,642.7941)" /><path
           style="fill:#000000;stroke-width:1.16497"
           d=""
           id="path1922"
           transform="matrix(0.75000002,0,0,-0.75000002,33.569783,642.7941)" /><path
           style="fill:#000000;stroke-width:1.16497"
           d=""
           id="path1961"
           transform="matrix(0.75000002,0,0,-0.75000002,33.569783,642.7941)" /><path
           style="fill:#000000;stroke-width:1.16497"
           d="m 694.39139,15.107575 c -1.8646,-1.410312 -1.93273,-1.710407 -0.38832,-1.710407 1.03017,0 2.39957,-1.441651 3.04312,-3.20367 0.96343,-2.6378884 1.2107,-2.7921927 1.40008,-0.8737287 0.1265,1.2814687 0.12763,3.0604777 0.002,3.9533537 -0.12512,0.892877 0.46807,2.064383 1.31819,2.603347 1.13134,0.717252 0.92111,0.974784 -0.78427,0.960723 -1.28146,-0.01057 -3.34755,-0.788894 -4.5913,-1.729618 z"
           id="path2000"
           transform="matrix(0.75000002,0,0,-0.75000002,33.569783,642.7941)" /><path
           style="fill:#000000;stroke-width:1.16497"
           d=""
           id="path2039"
           transform="matrix(0.75000002,0,0,-0.75000002,33.569783,642.7941)" /><path
           style="fill:#000000;stroke-width:1.16497"
           d=""
           id="path2078"
           transform="matrix(0.75000002,0,0,-0.75000002,33.569783,642.7941)" /><path
           style="fill:#000000;stroke-width:1.16497"
           d=""
           id="path2117"
           transform="matrix(0.75000002,0,0,-0.75000002,33.569783,642.7941)" /><path
           style="fill:#000000;stroke-width:0.823759"
           d="m 172.31526,383.70276 c -9.4068,3.88777 -19.31903,6.82145 -28.2958,11.77075 5.56244,2.21662 12.20093,-2.12417 17.57153,-4.53498 3.79566,-2.23463 8.61298,-3.68278 11.5963,-6.86089 -0.10474,-0.37344 -0.55377,-0.40614 -0.87203,-0.37488 z"
           id="path2193"
           transform="matrix(0.75000002,0,0,-0.75000002,33.569783,642.7941)" /><path
           style="fill:#000000;stroke-width:0.823759"
           d="m 288.73236,340.51494 c -25.26888,10.72835 -49.67051,23.50077 -74.14797,35.93005 -4.2268,2.51103 -9.88407,4.67604 -12.76504,8.09601 10.29816,-0.62785 19.70839,4.1419 29.1099,7.43797 17.46637,-13.18875 33.51577,-28.29367 49.92109,-42.80329 2.51435,-2.87538 6.7921,-5.20165 8.23759,-8.5819 -0.10035,-0.0863 -0.23323,-0.0949 -0.35557,-0.0788 z"
           id="path2269"
           transform="matrix(0.75000002,0,0,-0.75000002,33.569783,642.7941)" /><path
           style="fill:#000000;stroke-width:0.823759"
           d="m 690.98257,8.0026901 c -1.75879,0.765711 -1.55507,4.0218669 -4.29256,3.2306799 -1.1081,1.913339 3.19892,2.584464 4.59021,2.783404 1.95565,-0.340822 2.14399,-5.9574189 -0.29765,-6.0140839 z"
           id="path2308"
           transform="matrix(0.75000002,0,0,-0.75000002,33.569783,642.7941)" /><path
           style="fill:#000000;stroke-width:0.823759"
           d="m 288.73558,340.52138 c -25.30127,10.71445 -49.72107,23.51036 -74.25597,35.87883 -4.3406,2.41859 -9.02861,4.35979 -12.84368,7.60985 4.15206,0.84489 9.64739,0.8062 14.15675,2.58229 5.31566,1.21178 10.21159,4.58323 15.54684,5.22733 14.83915,-10.87773 28.07445,-23.8742 42.06618,-35.82383 5.20003,-5.06569 11.45982,-9.46818 15.81737,-15.20739 -0.0425,-0.22765 -0.29112,-0.30489 -0.48749,-0.26708 z"
           id="path2384"
           transform="matrix(0.75000002,0,0,-0.75000002,33.569783,642.7941)" /><path
           style="fill:#000000;stroke-width:0.823759"
           d="m 312.57471,321.55883 c -26.96427,8.52972 -51.75155,22.62613 -77.27837,34.5955 -71.53457,35.60627 -143.584208,70.38826 -212.840921,110.32241 -3.327696,2.56201 -8.519334,4.05972 -10.649279,7.64 4.284753,0.10817 8.495238,-3.17089 12.591909,-4.52158 56.918645,-26.90259 112.350371,-56.82536 168.583171,-85.1165 35.51123,-18.0497 71.11596,-35.97102 107.40604,-52.40403 4.64567,-2.68681 9.73832,-5.82916 12.65242,-10.3002 -0.0763,-0.18742 -0.28883,-0.22708 -0.46497,-0.2156 z"
           id="path2423"
           transform="matrix(0.75000002,0,0,-0.75000002,33.569783,642.7941)" /><path
           style="fill:#000000;stroke-width:0.823759"
           d="m 519.47497,250.76383 c -36.25617,11.60303 -72.3748,23.72703 -108.18584,36.64399 -3.43189,1.44336 -8.42782,3.19233 -9.306,7.13107 17.99077,-5.66513 35.83227,-12.91853 53.7283,-19.27121 21.37299,-7.95777 42.85985,-15.65667 64.08694,-23.97613 l -0.20916,-0.53899 z"
           id="path2536"
           transform="matrix(0.75000002,0,0,-0.75000002,33.569783,642.7941)" /><path
           style="fill:#000000;stroke-width:0.582486"
           d="m 670.06434,166.70919 c -18.48339,0.89756 -35.22412,9.81676 -52.14043,16.41313 -20.03363,8.53259 -40.07354,17.65614 -61.61033,21.6248 -24.32347,5.618 -47.27727,15.87406 -71.67475,21.1981 -4.04652,0.98666 -8.44692,1.31457 -11.11952,4.95169 -18.84317,16.76498 -38.05165,33.17205 -56.45964,50.39471 -1.30017,2.20743 2.36436,0.54663 3.16149,0.26802 70.32642,-23.29763 140.31002,-47.65926 210.80754,-70.42113 1.32984,-0.62619 2.71699,-0.6191 1.00684,0.37088 -16.86092,7.8614 -34.6128,13.66296 -51.95383,20.37172 -61.26201,22.7867 -122.81062,44.81773 -184.05067,67.65869 -35.6303,30.78571 -71.04149,61.84833 -106.19327,93.17721 -0.90883,1.87387 2.41978,0.42049 3.07284,0.28783 11.04953,-3.7396 22.67888,-5.97544 34.36032,-5.16038 3.9641,-0.29147 8.00482,1.67189 11.86765,0.88958 0.14977,-1.91088 -3.16088,-2.08216 -4.08082,-3.61437 -3.26556,-2.92846 0.47475,-7.15155 3.36977,-8.54957 9.38077,-4.79056 20.38358,-4.70574 30.33476,-7.29358 -1.2951,-1.88799 -4.75417,-1.6058 -6.79073,-2.57568 -2.13211,-0.87836 -5.53206,-1.25276 -6.75092,-3.23894 4.80236,-1.18379 10.22731,-2.31046 13.35962,-6.58937 15.89003,2.19919 31.38608,7.18433 47.44869,8.01487 3.49486,0.0561 6.31827,-2.30781 9.8574,-2.19084 7.87693,-1.04298 15.95853,-1.72569 23.39319,-4.63858 12.96204,-1.99571 26.53782,-2.07874 38.6888,-7.69038 14.9958,-7.92483 31.63528,-11.82333 47.26519,-18.25519 11.08219,-4.55862 22.57356,-8.53435 32.8014,-14.85459 2.0409,-1.53009 -1.38063,-1.8484 -2.44712,-1.79068 -11.63986,-0.66839 -23.45925,-0.52583 -34.66376,-4.23851 -8.77207,-2.66785 -17.83625,-5.362 -25.52566,-10.47267 -0.79119,-0.7808 -0.39725,-2.57443 0.93744,-1.63255 6.34938,3.13486 13.24644,4.84333 20.29712,5.40847 21.28548,2.04408 42.59618,4.73039 64.00827,4.70741 8.66174,0.0919 17.35186,-2.45424 24.02806,-8.10557 13.33791,-10.8002 28.30489,-19.35235 41.67479,-30.09703 0.82012,-0.75315 3.57446,-2.78078 1.32652,-3.446 -1.34946,-0.79235 -4.21711,-0.93841 -4.6269,-2.56771 3.63004,-1.60249 8.07051,-0.77029 11.9876,-1.46532 6.23582,0.0563 8.58952,-6.72868 10.79419,-11.3926 4.25854,-10.80233 7.73689,-22.45412 6.43806,-34.19031 2.09729,-2.49031 6.28765,-4.00239 5.47265,-7.90139 0.30409,-10.43524 2.49524,-20.78651 2.11104,-31.22981 -0.73736,-7.77746 -9.39221,-11.52801 -16.27775,-12.024 -1.16553,-0.0959 -2.33589,-0.13035 -3.50514,-0.11036 z m -56.35776,92.02817 c 9.36964,1.50575 18.78852,3.81866 28.3609,4.24919 1.09078,0.3221 3.56981,0.14998 3.88058,1.2503 -10.38621,1.44852 -21.01728,-0.73989 -30.95478,-3.84987 -0.92382,-0.29589 -4.70087,-2.01856 -1.2867,-1.64962 z"
           id="path2871"
           transform="matrix(0.75000002,0,0,-0.75000002,33.569783,642.7941)" /></g></g></g></svg>
