<?xml version="1.0" encoding="UTF-8" standalone="no"?>
<svg
   xmlns:dc="http://purl.org/dc/elements/1.1/"
   xmlns:cc="http://creativecommons.org/ns#"
   xmlns:rdf="http://www.w3.org/1999/02/22-rdf-syntax-ns#"
   xmlns:svg="http://www.w3.org/2000/svg"
   xmlns="http://www.w3.org/2000/svg"
   xmlns:sodipodi="http://sodipodi.sourceforge.net/DTD/sodipodi-0.dtd"
   xmlns:inkscape="http://www.inkscape.org/namespaces/inkscape"
   viewBox="0 0 711.91803 619.95995"
   height="619.95996"
   width="711.91803"
   xml:space="preserve"
   id="svg2"
   version="1.1"
   inkscape:version="0.91 r13725"
   sodipodi:docname="logo_vektorisiert_712_620.svg"><sodipodi:namedview
     pagecolor="#ffffff"
     bordercolor="#666666"
     borderopacity="1"
     objecttolerance="10"
     gridtolerance="10"
     guidetolerance="10"
     inkscape:pageopacity="0"
     inkscape:pageshadow="2"
     inkscape:window-width="1366"
     inkscape:window-height="715"
     id="namedview92"
     showgrid="false"
     fit-margin-left="5"
     fit-margin-top="5"
     fit-margin-bottom="5"
     fit-margin-right="5"
     inkscape:zoom="0.85839035"
     inkscape:cx="352.09362"
     inkscape:cy="324.1612"
     inkscape:window-x="-8"
     inkscape:window-y="-8"
     inkscape:window-maximized="1"
     inkscape:current-layer="svg2" /><metadata
     id="metadata8"><rdf:RDF><cc:Work
         rdf:about=""><dc:format>image/svg+xml</dc:format><dc:type
           rdf:resource="http://purl.org/dc/dcmitype/StillImage" /><dc:title></dc:title></cc:Work></rdf:RDF></metadata><defs
     id="defs6"><clipPath
       id="clipPath18"
       clipPathUnits="userSpaceOnUse"><path
         id="path16"
         d="m 0,841.89 595.28,0 L 595.28,0 0,0 Z"
         inkscape:connector-curvature="0" /></clipPath></defs><g
     transform="matrix(1.3333333,0,0,-1.3333333,-44.75971,857.05878)"
     id="g10"><g
       id="g12"><g
         clip-path="url(#clipPath18)"
         id="g14"><g
           transform="translate(421.0049,586.4683)"
           id="g20"><path
             id="path22"
             style="fill:#231f20;fill-opacity:1;fill-rule:nonzero;stroke:none"
             d="m 0,0 c -0.153,0 -0.321,-0.144 -0.392,-0.375 -0.044,-0.139 -0.043,-0.284 0,-0.396 0.017,-0.043 0.054,-0.119 0.12,-0.139 l 0.037,-0.005 c 0.118,0 0.29,0.145 0.362,0.38 0.044,0.139 0.043,0.284 0,0.396 C 0.11,-0.096 0.073,-0.02 0.008,0 Z m -0.235,-1.84 0,0 c -0.106,0 -0.209,0.015 -0.309,0.046 -0.322,0.099 -0.582,0.351 -0.712,0.692 -0.117,0.307 -0.125,0.662 -0.02,0.999 0.223,0.725 0.94,1.177 1.555,0.987 C 0.602,0.785 0.861,0.533 0.991,0.192 1.108,-0.114 1.116,-0.469 1.012,-0.807 0.824,-1.415 0.312,-1.84 -0.235,-1.84"
             inkscape:connector-curvature="0" /></g><g
           transform="translate(534.4648,542.2056)"
           id="g24"><path
             id="path26"
             style="fill:#231f20;fill-opacity:1;fill-rule:nonzero;stroke:none"
             d="m 0,0 c -0.091,0 -0.187,-0.022 -0.278,-0.063 -0.131,-0.06 -0.24,-0.156 -0.295,-0.263 -0.022,-0.041 -0.053,-0.119 -0.026,-0.181 0.032,-0.069 0.14,-0.115 0.269,-0.115 0.092,0 0.187,0.022 0.278,0.063 0.132,0.06 0.24,0.156 0.296,0.264 0.022,0.04 0.053,0.118 0.025,0.18 C 0.237,-0.046 0.13,0 0,0 m -0.33,-1.547 0,0 c -0.502,0 -0.928,0.253 -1.11,0.658 -0.139,0.305 -0.122,0.667 0.046,0.991 0.152,0.29 0.412,0.531 0.733,0.677 C 0.029,1.091 0.847,0.852 1.111,0.268 1.25,-0.038 1.233,-0.399 1.064,-0.723 0.913,-1.014 0.652,-1.255 0.331,-1.401 0.12,-1.497 -0.108,-1.547 -0.33,-1.547"
             inkscape:connector-curvature="0" /></g><g
           transform="translate(528.3262,538.4746)"
           id="g28"><path
             id="path30"
             style="fill:#231f20;fill-opacity:1;fill-rule:nonzero;stroke:none"
             d="m 0,0 c -0.101,0 -0.214,-0.03 -0.318,-0.084 -0.246,-0.126 -0.324,-0.312 -0.315,-0.353 0.007,-0.003 0.257,-0.054 0.467,0.054 0.246,0.125 0.322,0.311 0.313,0.353 C 0.145,-0.029 0.098,0 0,0 m -0.484,-1.393 0,0 c -0.437,0 -0.801,0.201 -0.973,0.537 -0.146,0.284 -0.133,0.628 0.035,0.945 0.141,0.266 0.383,0.498 0.681,0.65 0.655,0.335 1.443,0.177 1.713,-0.35 C 1.118,0.104 1.105,-0.24 0.937,-0.556 0.796,-0.823 0.555,-1.054 0.256,-1.207 0.02,-1.328 -0.237,-1.393 -0.484,-1.393"
             inkscape:connector-curvature="0" /></g><g
           transform="translate(418.6045,581.0117)"
           id="g32"><path
             id="path34"
             style="fill:#231f20;fill-opacity:1;fill-rule:nonzero;stroke:none"
             d="m 0,0 c -0.165,0.032 -0.343,-0.044 -0.477,-0.218 -0.088,-0.116 -0.138,-0.252 -0.137,-0.372 0,-0.046 0.01,-0.13 0.064,-0.171 l 0.057,-0.026 c 0.115,-0.022 0.306,0.053 0.448,0.237 0.177,0.231 0.161,0.476 0.073,0.544 C 0.02,-0.004 0.01,-0.001 0,0 m -0.67,-1.694 0,0 c -0.164,0.031 -0.313,0.098 -0.444,0.198 -0.266,0.205 -0.422,0.532 -0.425,0.897 -0.004,0.328 0.113,0.663 0.328,0.944 0.46,0.6 1.291,0.776 1.803,0.383 C 1.115,0.326 1.159,-0.5 0.688,-1.113 0.346,-1.56 -0.187,-1.788 -0.67,-1.694"
             inkscape:connector-curvature="0" /></g><g
           transform="translate(558.4619,631.9277)"
           id="g36"><path
             id="path38"
             style="fill:#231f20;fill-opacity:1;fill-rule:nonzero;stroke:none"
             d="m 0,0 c 0.024,-0.004 0.05,-0.006 0.078,-0.006 0.263,0 0.609,0.165 0.937,0.377 C 0.999,0.372 0.984,0.372 0.968,0.372 0.424,0.372 0.149,0.199 0,0 m 0.078,-0.931 0,0 c -0.424,0 -0.781,0.178 -1.032,0.514 -0.09,0.122 -0.115,0.279 -0.068,0.422 0.275,0.833 0.982,1.292 1.99,1.292 0.673,0 1.265,-0.204 1.29,-0.213 C 2.409,1.031 2.521,0.904 2.556,0.748 2.591,0.591 2.542,0.428 2.428,0.316 2.297,0.188 1.118,-0.931 0.078,-0.931"
             inkscape:connector-curvature="0" /></g><g
           transform="translate(549.9775,635.1138)"
           id="g40"><path
             id="path42"
             style="fill:#231f20;fill-opacity:1;fill-rule:nonzero;stroke:none"
             d="M 0,0 C 0.006,0.02 0.009,0.042 0.011,0.066 0.029,0.287 -0.085,0.59 -0.24,0.88 -0.242,0.867 -0.243,0.854 -0.244,0.841 -0.282,0.383 -0.156,0.14 0,0 m 0.789,0 0,0 C 0.76,-0.355 0.584,-0.644 0.284,-0.831 0.176,-0.898 0.041,-0.909 -0.076,-0.859 c -0.682,0.29 -1.018,0.917 -0.946,1.765 0.047,0.566 0.26,1.05 0.269,1.07 0.056,0.123 0.17,0.209 0.305,0.227 0.135,0.019 0.267,-0.034 0.353,-0.138 C 0.003,1.946 0.862,0.875 0.789,0"
             inkscape:connector-curvature="0" /></g><g
           transform="translate(554.9424,635.7354)"
           id="g44"><path
             id="path46"
             style="fill:#231f20;fill-opacity:1;fill-rule:nonzero;stroke:none"
             d="M 0,0 C -0.459,-0.355 -0.925,-0.896 -0.802,-1.577 -0.424,-1.435 -0.152,-0.708 0,0 m -0.936,-2.526 0,0 c -0.099,0 -0.203,0.011 -0.305,0.033 -0.15,0.032 -0.274,0.135 -0.331,0.276 -0.74,1.795 0.974,3.099 1.984,3.538 C 0.559,1.386 0.731,1.368 0.863,1.275 0.995,1.182 1.068,1.027 1.058,0.866 1.035,0.519 0.782,-2.526 -0.936,-2.526"
             inkscape:connector-curvature="0" /></g><g
           transform="translate(416.9111,514.1201)"
           id="g48"><path
             id="path50"
             style="fill:#231f20;fill-opacity:1;fill-rule:nonzero;stroke:none"
             d="M 0,0 -147.701,-128.782 1.084,-0.293 C 0.855,-0.123 0.489,0.05 0,0 m -294.937,-257.007 c -0.129,0 -0.257,0.055 -0.349,0.159 -0.168,0.194 -0.147,0.486 0.045,0.653 l 0.002,0.002 L -0.504,0.788 C -0.439,0.845 -0.36,0.882 -0.275,0.896 1.316,1.159 2.112,-0.021 2.144,-0.065 2.272,-0.26 2.237,-0.52 2.061,-0.672 l -296.695,-256.222 c -0.088,-0.076 -0.195,-0.113 -0.303,-0.113"
             inkscape:connector-curvature="0" /></g><g
           transform="translate(562.7119,632.3311)"
           id="g52"><path
             id="path54"
             style="fill:#231f20;fill-opacity:1;fill-rule:nonzero;stroke:none"
             d="m 0,0 c -0.628,-1.554 -2.198,-2.167 -6.669,-2.593 -0.552,0.468 -3.61,2.899 -7.867,3.243 -0.277,2.143 -0.227,4.224 0.122,4.46 l 0.154,0.102 c 0.428,0.284 0.87,0.577 1.328,0.577 0.482,0 0.986,-0.326 1.54,-0.995 0.364,-0.438 0.742,-0.651 1.157,-0.651 0.527,0 0.952,0.345 1.402,0.711 0.527,0.427 1.072,0.869 1.838,0.869 0.467,0 0.991,-0.169 1.56,-0.502 C -4.909,4.913 -4.832,4.452 -4.769,3.729 -4.705,3.006 -4.618,2.016 -3.326,1.896 -2.459,1.815 -0.427,1.626 0.025,0.883 0.074,0.802 0.225,0.556 0,0 m -9.253,-5.073 c -1.199,1.563 -5.117,2.727 -7.646,3.338 l 2.259,1.47 c 3.473,-0.272 6.163,-2.098 7.093,-2.811 z M -25.557,-23.98 -62.229,-54.004 c -0.97,2.223 -3.367,3.482 -5.685,4.197 -1.118,0.365 -2.445,0.654 -4.012,0.82 -0.093,0.01 -0.19,0.022 -0.275,0.03 2.676,2.462 10.414,9.953 17.929,17.227 7.2,6.97 14.645,14.176 15.16,14.545 0.83,0.581 14.618,10.224 21.101,14.757 4.559,-1.009 7.854,-2.408 8.162,-3.457 z m -41.139,-34.363 -0.134,0.003 c -1.892,0.08 -5.925,1.414 -8.403,2.803 -0.663,0.48 -1.341,1.041 -2.028,1.694 -0.003,0.008 -0.008,0.015 -0.01,0.022 -0.586,1.51 2.698,3.401 4.036,4.016 0.398,-0.023 0.769,-0.061 1.138,-0.099 0.828,-0.095 1.988,-0.271 3.209,-0.593 4.483,-1.254 5.73,-3.723 5.957,-4.287 -0.228,-0.666 -1.359,-3.559 -3.765,-3.559 m 34.851,-30.73 c 0.137,-0.117 0.328,-0.145 0.491,-0.071 0.022,0.01 2.174,0.973 3.845,0.973 0.638,0 1.101,-0.14 1.377,-0.416 0.274,-0.273 -0.05,-2.043 -0.678,-3.712 -0.035,-0.093 -0.038,-0.194 -0.011,-0.289 l 1.043,-3.684 -5.726,1.203 c -0.031,0.006 -0.062,0.009 -0.095,0.009 -0.057,0 -0.115,-0.01 -0.17,-0.031 -0.018,-0.008 -1.923,-0.749 -3.578,-0.749 -0.553,0 -1.01,0.083 -1.359,0.247 -0.325,0.153 -0.514,0.354 -0.576,0.613 -0.144,0.6 0.371,1.433 0.581,1.703 0.007,0.008 0.008,0.019 0.013,0.028 0.005,0.007 0.013,0.009 0.017,0.016 0.013,0.021 0.015,0.045 0.025,0.067 0.01,0.027 0.023,0.053 0.029,0.082 0.008,0.036 0.007,0.07 0.005,0.106 0,0.02 0.006,0.04 0.003,0.06 -10e-4,0.005 -0.005,0.01 -0.007,0.016 -0.007,0.037 -0.024,0.071 -0.04,0.106 -0.01,0.021 -0.016,0.043 -0.029,0.062 -0.021,0.03 -0.05,0.054 -0.078,0.079 -0.017,0.015 -0.028,0.035 -0.048,0.048 l -33.462,22.21 c -0.555,3.976 -9.414,12.418 -23.042,12.418 -1.831,0 -3.707,-0.156 -5.577,-0.463 l -41.594,6.733 c -0.036,0.006 -0.073,0 -0.109,-0.003 -0.019,-0.002 -0.04,0.002 -0.059,-0.002 -0.046,-0.01 -0.087,-0.03 -0.128,-0.053 -0.011,-0.006 -0.024,-0.007 -0.032,-0.014 -0.003,-0.002 -0.006,-0.002 -0.008,-0.004 -0.801,-0.55 -3.277,-2.029 -4.676,-1.866 -0.275,0.032 -0.479,0.146 -0.64,0.358 -0.477,0.625 -0.41,1.898 -0.344,2.336 0.028,0.186 -0.058,0.37 -0.219,0.466 l -4.831,2.902 6.122,0.621 c 0.1,0.01 0.196,0.053 0.269,0.122 1.014,0.95 2.992,2.456 3.982,2.456 0.084,0 0.156,-0.011 0.215,-0.034 0.945,-0.363 1.444,-2.384 1.544,-3.062 0.03,-0.209 0.199,-0.37 0.408,-0.393 l 60.999,-6.552 c 0.381,-0.632 1.214,-1.285 2.28,-1.899 3.692,-2.649 6.953,-2.99 8.348,-2.99 0.329,0 0.584,0.018 0.75,0.034 z m -39.296,17.421 0.468,0.41 13.038,-8.654 z m -60.423,-51.748 c -2.581,3.385 -7.083,5.767 -11.584,7.412 -3.455,1.426 -7.69,2.637 -12.732,3.193 l 57.184,53.433 c 1.177,0.073 2.341,0.11 3.46,0.11 17.938,0 23.151,-9.505 23.967,-11.282 z m -92.586,-81.412 c -0.092,-0.041 -0.163,-0.105 -0.211,-0.186 -101.218,-88.997 -249.929,-219.734 -254.621,-223.751 -7.04,-6.025 -40.348,-21.083 -45.214,-21.083 -0.138,0 -0.218,0.014 -0.249,0.014 -0.006,0 -0.01,0 -0.013,-0.001 -0.95,2.488 18.101,32.967 23.557,37.668 5.387,4.639 335.262,290.84 344.113,298.518 1.193,-0.16 7.713,-1.11 13.988,-3.504 6.071,-2.638 9.502,-5.877 10.499,-6.91 -4.19,-3.684 -42.307,-37.205 -91.849,-80.765 m 0.486,-0.804 c 46.973,16.04 102.497,34.708 136.703,46.175 -36.378,-13.29 -96.928,-35.414 -144.075,-52.657 2.481,2.181 4.943,4.346 7.372,6.482 m 62.131,48.131 c 4.641,0.999 9.44,2.032 14.056,3.581 3.482,1.168 7,2.519 10.403,3.826 5.372,2.064 10.926,4.198 16.579,5.712 3.576,0.958 7.25,1.647 10.804,2.315 5.824,1.094 11.847,2.226 17.717,4.574 10.389,4.157 20.383,8.44 29.707,12.731 8.242,3.792 20.444,9.015 31.224,10.579 5.207,0.756 10.582,0.079 14.743,-1.857 4.823,-2.244 5.566,-5.566 5.291,-11.299 -0.149,-3.125 -0.642,-6.211 -1.12,-9.196 -0.304,-1.895 -0.617,-3.855 -0.835,-5.789 -0.108,-0.962 -0.027,-2.054 0.052,-3.111 0.124,-1.654 0.251,-3.364 -0.335,-4.572 -0.403,-0.83 -1.144,-1.214 -1.928,-1.62 -0.925,-0.48 -1.973,-1.023 -2.346,-2.377 l 0.672,-0.184 c 0.898,-8.4 -0.788,-14.677 -3.999,-22.613 -0.25,-0.615 -0.495,-1.282 -0.749,-1.972 -1.057,-2.872 -2.256,-6.127 -4.484,-7.705 -2.763,-1.956 -6.648,-1.865 -10.073,-1.789 l -3.124,0.057 1.881,-0.913 c 0.893,-0.435 1.777,-0.655 2.712,-0.887 0.148,-0.037 0.298,-0.074 0.451,-0.113 l -0.023,-0.032 0.018,-0.175 c 0.175,-1.763 -5.64,-5.81 -8.123,-7.539 -0.788,-0.547 -1.409,-0.98 -1.765,-1.263 -3.817,-3.044 -8.142,-5.616 -12.324,-8.104 l -0.999,-0.594 c -3.263,-1.945 -5.686,-4.177 -8.251,-6.541 -0.939,-0.866 -1.908,-1.76 -2.931,-2.646 -3.911,-3.395 -9.825,-4.657 -14.097,-5.12 -7.884,-0.853 -15.991,0.207 -23.829,1.232 -2.652,0.348 -5.396,0.706 -8.062,0.981 -2.732,0.279 -5.526,0.355 -8.228,0.429 -3.228,0.088 -6.566,0.179 -9.798,0.621 -1.084,0.147 -2.201,0.248 -3.28,0.344 -2.017,0.182 -4.104,0.368 -6.041,0.877 -1.223,0.322 -2.452,0.964 -3.639,1.586 -1.339,0.7 -2.724,1.425 -4.124,1.7 l -0.244,-0.89 c 1.968,-0.691 3.87,-1.643 5.708,-2.564 2.002,-1.003 4.072,-2.04 6.27,-2.766 5.255,-1.739 10.827,-3.062 15.638,-4.165 5.529,-1.27 10.962,-1.162 16.219,-1.059 2.171,0.044 4.405,0.088 6.641,0.035 -0.092,-0.074 -0.185,-0.148 -0.278,-0.223 -0.261,-0.208 -0.526,-0.419 -0.78,-0.656 -2.235,-2.069 -5.527,-3.421 -8.711,-4.727 -1.651,-0.678 -3.212,-1.319 -4.64,-2.055 -5.439,-2.804 -9.762,-4.637 -13.604,-5.771 -2.518,-0.744 -4.882,-1.772 -7.169,-2.766 -2.123,-0.924 -4.128,-1.796 -6.228,-2.449 -2.666,-0.828 -5.426,-1.577 -8.095,-2.301 -2.231,-0.605 -4.536,-1.231 -6.791,-1.904 l -0.013,-0.001 c -0.196,-0.005 -0.656,-0.019 -0.664,-0.469 0,-0.017 0,-0.032 0.001,-0.048 -3.738,-3.844 -12.784,-6.117 -18.254,-7.491 l -0.439,-0.11 c -2.844,-0.716 -5.653,-0.844 -8.629,-0.981 l -1.072,-0.049 c -0.564,-0.028 -1.303,-0.022 -2.087,-0.015 -2.576,0.017 -5.785,0.045 -7.267,-0.971 l -0.719,-0.493 0.812,-0.319 c 0.457,-0.179 0.945,-0.336 1.454,-0.463 -3.242,-0.682 -6.787,-0.902 -10.236,-1.116 -2.998,-0.186 -6.1,-0.38 -9.004,-0.871 l -1.742,-0.295 1.663,-0.596 c 0.275,-0.099 0.551,-0.187 0.828,-0.264 -9.311,-1.439 -18.79,0.791 -27.984,2.952 -4.534,1.066 -9.222,2.168 -13.751,2.782 l -0.174,-0.908 c 0.283,-0.069 0.584,-0.224 0.868,-0.388 -0.651,-0.276 -1.267,-0.581 -1.869,-0.878 -0.906,-0.447 -1.761,-0.871 -2.7,-1.19 l -0.988,-0.336 0.912,-0.507 c 0.194,-0.106 0.344,-0.216 0.486,-0.318 0.107,-0.077 0.215,-0.154 0.333,-0.229 l -0.034,-0.198 c -0.944,-0.015 -1.908,0.154 -2.822,0.314 -0.848,0.148 -1.726,0.3 -2.618,0.317 l -1.334,0.022 1.032,-0.843 c 2.055,-1.68 6.223,-2.366 9.357,-2.647 1.647,-0.147 3.258,-0.4 4.814,-0.646 0.818,-0.129 1.649,-0.259 2.487,-0.375 -2.04,-0.411 -4.915,-0.763 -8.084,-1.152 -11.622,-1.42 -26.085,-3.19 -25.365,-10.087 l 0.027,-0.25 0.221,-0.113 c 2.521,-1.305 4.615,-2.311 7.05,-3.225 -0.519,-0.096 -1.022,-0.214 -1.518,-0.331 -1.08,-0.255 -2.194,-0.518 -3.419,-0.524 -1.361,0.013 -2.734,0.34 -4.06,0.674 -0.999,0.253 -2.033,0.514 -3.069,0.628 -5.027,0.557 -10.941,0.19 -15.818,-0.979 -2.819,-0.675 -5.645,-1.718 -8.379,-2.727 -2.893,-1.068 -5.869,-2.16 -8.824,-2.811 28.422,24.987 57.252,50.335 83.431,73.353 72.306,26.444 178.177,65.114 178.177,65.114 0.237,0.087 0.361,0.349 0.278,0.588 -0.084,0.238 -0.346,0.367 -0.584,0.286 -0.937,-0.313 -93.583,-31.246 -166.763,-56.223 18.888,16.609 36.068,31.715 50.256,44.191 l 0.006,-0.024 c 3.32,0.917 6.742,1.654 10.051,2.367 m -195.466,-126.988 c -1.202,0.509 -2.189,1.102 -3.236,1.729 -1.009,0.605 -2.053,1.231 -3.289,1.764 -0.735,0.316 -1.729,0.486 -2.783,0.666 -1.744,0.298 -3.722,0.636 -4.219,1.679 l -0.188,0.392 -0.403,-0.162 c -2.313,-0.93 -4.07,-0.49 -5.77,-0.065 -1.723,0.432 -3.508,0.877 -5.702,-0.151 -1.999,-0.938 -3.624,-2.181 -5.195,-3.383 -1.376,-1.053 -2.799,-2.142 -4.443,-2.988 -2.774,-1.43 -5.429,-1.904 -8.409,-2.333 37.881,19.436 75.755,38.558 96.844,47.38 -17.193,-14.917 -34.734,-30.134 -51.918,-45.042 -0.429,0.163 -0.858,0.332 -1.289,0.514 m -70.028,-15.386 c -44.098,-22.71 -89.659,-46.173 -94.655,-46.173 -0.06,0 -0.113,0.003 -0.162,0.01 1.629,3.503 37.958,23.588 97.554,53.922 51.361,26.144 103.046,51.281 114.943,56.29 2.962,1.248 9.053,3.521 18.117,6.763 -3.436,-2.98 -6.891,-5.978 -10.363,-8.991 -25.053,-10.126 -78.378,-37.588 -125.434,-61.821 m 4.428,12.995 c 3.652,2.657 8.038,4.189 12.297,5.677 2.609,0.912 5.073,1.773 7.38,2.874 1.452,0.693 3.435,1.934 4.512,2.826 0.412,0.341 0.716,0.849 1.008,1.341 0.356,0.598 0.725,1.218 1.263,1.49 0.354,0.179 0.912,0.135 1.452,0.094 0.655,-0.051 1.331,-0.104 1.856,0.208 0.66,0.394 0.925,1.075 1.159,1.675 0.162,0.418 0.317,0.812 0.559,0.973 0.542,0.357 1.062,0.396 1.614,0.438 0.412,0.032 0.837,0.064 1.243,0.241 1.961,0.857 3.269,1.647 3.213,4.419 0.478,-0.02 0.917,-0.122 1.346,-0.224 1.053,-0.247 2.142,-0.503 3.412,0.615 1.04,0.916 2.354,4.28 2.41,4.423 1.831,4.713 2.433,8.232 1.839,10.759 l -0.067,0.282 -0.282,0.064 c -0.729,0.164 -1.437,0.184 -2.087,0.064 3.785,4.954 10.038,8.311 15.604,11.299 1.017,0.547 2.014,1.081 2.968,1.611 4.899,2.721 8.676,5.07 11.884,7.392 2.062,1.491 3.57,3.556 5.029,5.553 0.941,1.29 1.915,2.622 3.035,3.803 6.545,6.901 15.864,9.211 24.878,11.446 l 0.419,0.103 c 3.439,0.853 7.059,1.49 10.56,2.107 6.111,1.076 12.43,2.189 18.169,4.496 2.469,0.992 4.477,2.773 6.419,4.495 1.317,1.169 2.679,2.377 4.154,3.303 2.3,1.445 4.666,2.229 7.17,3.059 2.047,0.679 4.164,1.381 6.219,2.474 8.817,4.688 18.577,6.379 27.113,7.35 -16.84,-14.611 -35.427,-30.736 -54.722,-47.476 l -0.044,0.122 c -10.147,-3.616 -16.905,-6.128 -20.088,-7.469 -11.269,-4.744 -58.145,-27.503 -106.665,-52.083 -1.429,1.066 -4.064,0.587 -6.229,0.176 m 303.619,230.736 19.084,-3.089 -0.75,-0.702 c -0.036,0.018 -0.069,0.038 -0.11,0.046 z M 0.816,1.364 c -0.577,0.946 -2.039,1.265 -4.057,1.453 -0.482,0.045 -0.537,0.204 -0.607,0.994 -0.06,0.69 -0.143,1.637 -1.12,2.209 -0.722,0.422 -1.386,0.628 -2.027,0.628 -1.094,0 -1.86,-0.622 -2.42,-1.076 -0.32,-0.259 -0.622,-0.504 -0.82,-0.504 -0.151,0 -0.325,0.173 -0.445,0.317 -0.741,0.894 -1.477,1.328 -2.252,1.328 -0.737,0 -1.347,-0.404 -1.839,-0.729 l -0.148,-0.098 c -1.016,-0.662 -0.743,-3.798 -0.531,-5.393 -2.431,-1.701 -23.169,-16.203 -24.193,-16.92 -0.507,-0.356 -6.109,-5.767 -15.273,-14.638 -8.115,-7.856 -17.298,-16.745 -18.656,-17.877 -0.705,-0.318 -4.723,-2.239 -4.684,-4.53 l -60.291,6.476 c -0.173,0.863 -0.719,2.918 -2.065,3.436 -0.165,0.063 -0.35,0.095 -0.547,0.095 -1.543,0 -3.897,-2.051 -4.497,-2.598 l -7.354,-0.747 c -0.198,-0.02 -0.362,-0.164 -0.405,-0.359 -0.043,-0.194 0.042,-0.394 0.213,-0.497 l 5.769,-3.464 c -0.052,-0.603 -0.074,-1.893 0.558,-2.723 0.311,-0.408 0.749,-0.655 1.269,-0.717 1.749,-0.206 4.444,1.456 5.142,1.912 l 39.01,-8.016 -55.79,-52.13 c -1.102,-0.955 -32.713,-28.382 -76.372,-66.259 l -0.252,-0.03 c -8.872,-0.962 -19.2,-2.614 -28.531,-7.575 -1.985,-1.056 -4.064,-1.745 -6.075,-2.412 -2.446,-0.811 -4.976,-1.649 -7.371,-3.153 -1.54,-0.968 -2.93,-2.202 -4.276,-3.395 -1.97,-1.747 -3.83,-3.397 -6.15,-4.329 -5.65,-2.271 -11.92,-3.375 -17.984,-4.442 -3.516,-0.62 -7.153,-1.26 -10.622,-2.121 l -0.42,-0.104 c -8.717,-2.16 -18.596,-4.609 -25.326,-11.706 -1.161,-1.224 -2.153,-2.582 -3.111,-3.894 -1.482,-2.029 -2.881,-3.944 -4.824,-5.35 -3.178,-2.299 -6.924,-4.629 -11.792,-7.332 -0.95,-0.529 -1.942,-1.061 -2.956,-1.605 -6.116,-3.284 -13.048,-7.006 -16.816,-12.851 l -1.209,-1.877 1.855,1.241 c 0.695,0.465 1.611,0.624 2.6,0.462 0.439,-2.322 -0.172,-5.573 -1.861,-9.922 -0.493,-1.271 -1.516,-3.498 -2.159,-4.063 -0.914,-0.804 -1.618,-0.638 -2.589,-0.41 -0.6,0.14 -1.278,0.304 -2.078,0.237 l -0.458,-0.036 0.033,-0.457 c 0.184,-2.633 -0.778,-3.179 -2.638,-3.992 -0.263,-0.114 -0.577,-0.138 -0.942,-0.166 -0.585,-0.044 -1.313,-0.098 -2.055,-0.591 -0.488,-0.322 -0.703,-0.874 -0.911,-1.407 -0.197,-0.507 -0.384,-0.985 -0.771,-1.215 -0.272,-0.162 -0.799,-0.121 -1.31,-0.082 -0.667,0.052 -1.357,0.106 -1.941,-0.19 -0.778,-0.394 -1.237,-1.163 -1.641,-1.843 -0.265,-0.444 -0.514,-0.862 -0.803,-1.101 -1.028,-0.85 -2.926,-2.038 -4.32,-2.705 -2.262,-1.079 -4.702,-1.931 -7.287,-2.834 -4.9,-1.712 -9.967,-3.482 -13.997,-6.959 l -1.14,-0.984 1.495,0.174 c 0.496,0.057 1.099,0.172 1.736,0.293 1.681,0.318 3.888,0.735 5.15,0.246 -2.447,-1.24 -4.897,-2.484 -7.346,-3.731 -44.125,-22.459 -96.958,-50.171 -98.077,-54.646 -0.081,-0.323 0.008,-0.617 0.244,-0.804 0.132,-0.104 0.347,-0.156 0.648,-0.156 5.035,0 34.037,14.652 95.29,46.197 7.718,3.975 15.604,8.037 23.506,12.093 l 0.003,-0.022 c 0.543,0.081 1.077,0.156 1.604,0.23 3.327,0.468 6.47,0.909 9.688,2.568 1.717,0.883 3.173,1.998 4.581,3.075 1.533,1.173 3.117,2.385 5.026,3.28 1.896,0.89 3.374,0.52 5.085,0.092 1.673,-0.418 3.556,-0.889 5.97,-0.035 0.864,-1.172 2.8,-1.503 4.679,-1.824 0.997,-0.17 1.939,-0.332 2.571,-0.604 1.18,-0.509 2.197,-1.118 3.18,-1.708 1.027,-0.615 2.09,-1.253 3.351,-1.786 0.289,-0.123 0.576,-0.232 0.864,-0.345 -74.795,-64.888 -142.591,-123.699 -145.008,-125.781 -5.133,-4.421 -23.827,-33.437 -23.888,-38.21 -0.004,-0.372 0.095,-0.652 0.296,-0.835 0.198,-0.179 0.483,-0.262 0.9,-0.262 5.479,0 39.303,15.731 45.816,21.306 3.352,2.87 80.134,70.348 160.621,141.106 3.54,0.58 7.087,1.884 10.519,3.151 2.708,0.999 5.508,2.033 8.274,2.696 4.779,1.145 10.571,1.503 15.5,0.958 0.974,-0.107 1.931,-0.349 2.945,-0.605 1.381,-0.348 2.831,-0.687 4.29,-0.703 1.331,0.007 2.498,0.283 3.627,0.548 1.146,0.272 2.247,0.532 3.444,0.505 l 3.052,-0.055 -2.899,0.956 c -3.228,1.066 -5.653,2.191 -8.685,3.754 -0.212,5.798 14.09,7.548 24.572,8.83 4.704,0.577 8.766,1.073 10.57,1.836 l 1.732,0.732 -1.873,0.155 c -1.602,0.133 -3.155,0.377 -4.798,0.636 -1.573,0.248 -3.198,0.504 -4.876,0.654 -1.792,0.16 -4.625,0.527 -6.794,1.338 0.039,-0.007 0.076,-0.014 0.114,-0.02 1.148,-0.201 2.332,-0.408 3.611,-0.299 l 2.189,0.185 -1.391,0.478 c 0.001,0.001 0.002,0.002 0.003,0.002 l 0.177,-0.017 0.44,0.495 -0.235,0.308 c -0.146,0.191 -0.323,0.21 -0.509,0.159 -0.404,0.056 -0.628,0.166 -0.86,0.321 0.679,0.282 1.326,0.601 1.958,0.914 0.854,0.422 1.739,0.859 2.69,1.195 l 1.094,0.385 -0.041,0.018 c 3.51,-0.62 7.081,-1.46 10.562,-2.277 10.159,-2.388 20.667,-4.857 31.02,-2.45 l 3.447,0.803 -3.537,0.111 c -0.309,0.01 -0.614,0.033 -0.916,0.067 2.137,0.249 4.341,0.386 6.493,0.519 4.271,0.265 8.687,0.54 12.564,1.683 l 2.328,0.686 -2.418,0.218 c -0.784,0.071 -1.554,0.207 -2.272,0.403 1.527,0.402 3.87,0.386 5.689,0.37 0.797,-0.006 1.551,-0.012 2.14,0.016 l 1.07,0.05 c 3.022,0.138 5.878,0.269 8.812,1.007 l 0.439,0.11 c 5.685,1.429 15.16,3.81 18.941,8.011 2.253,0.673 4.562,1.3 6.796,1.906 2.677,0.727 5.445,1.478 8.127,2.312 2.149,0.667 4.272,1.59 6.323,2.483 2.261,0.984 4.599,2 7.062,2.727 3.899,1.151 8.273,3.006 13.766,5.837 1.393,0.718 2.935,1.35 4.568,2.021 3.26,1.338 6.63,2.722 8.988,4.905 0.237,0.219 0.485,0.417 0.728,0.61 0.403,0.322 0.82,0.655 1.179,1.075 l 0.62,0.726 -0.954,0.037 c -2.633,0.101 -5.262,0.05 -7.803,-0.001 -5.44,-0.106 -10.577,-0.207 -15.995,1.035 -4.789,1.099 -10.336,2.416 -15.553,4.143 -0.559,0.184 -1.11,0.39 -1.657,0.613 1.119,-0.155 2.247,-0.257 3.353,-0.356 1.07,-0.095 2.174,-0.195 3.238,-0.34 3.282,-0.449 6.645,-0.539 9.898,-0.629 2.685,-0.073 5.461,-0.149 8.159,-0.425 2.653,-0.273 5.39,-0.631 8.036,-0.977 7.893,-1.033 16.054,-2.101 24.048,-1.235 4.403,0.477 10.512,1.79 14.606,5.341 1.031,0.895 2.007,1.795 2.951,2.664 2.528,2.331 4.917,4.532 8.096,6.427 l 0.998,0.594 c 4.21,2.503 8.563,5.092 12.428,8.175 0.332,0.265 0.944,0.69 1.717,1.228 4.313,3.001 8.508,6.101 8.522,8.224 0.142,0.288 0.123,0.603 -0.062,0.888 l -0.097,0.149 -0.173,0.046 c -0.127,0.034 -0.251,0.066 -0.374,0.097 2.969,0.001 6.054,0.279 8.471,1.99 2.463,1.745 3.715,5.144 4.818,8.142 0.251,0.68 0.493,1.337 0.739,1.944 3.31,8.182 5.03,14.633 4.028,23.401 l -0.482,-0.055 c 0.347,0.647 0.978,0.982 1.695,1.353 0.843,0.437 1.797,0.931 2.334,2.037 0.696,1.433 0.559,3.269 0.426,5.045 -0.079,1.062 -0.155,2.065 -0.056,2.939 0.216,1.913 0.528,3.862 0.829,5.747 0.482,3.01 0.98,6.121 1.132,9.297 0.288,6.01 -0.556,9.731 -5.825,12.182 -4.32,2.01 -9.885,2.715 -15.267,1.934 -10.898,-1.581 -23.184,-6.838 -31.477,-10.654 -9.31,-4.284 -19.29,-8.561 -29.664,-12.712 -5.786,-2.315 -11.764,-3.438 -17.545,-4.524 -3.571,-0.67 -7.262,-1.364 -10.872,-2.331 -5.701,-1.526 -11.278,-3.669 -16.672,-5.741 -3.394,-1.304 -6.903,-2.651 -10.365,-3.813 -4.567,-1.533 -9.34,-2.56 -13.957,-3.554 -2.746,-0.591 -5.567,-1.206 -8.354,-1.92 23.196,20.397 38.048,33.456 38.748,34.072 l 0.001,0 59.464,52.137 34.15,-20.844 c -0.285,-0.481 -0.646,-1.285 -0.464,-2.056 0.089,-0.374 0.349,-0.892 1.083,-1.238 0.473,-0.222 1.062,-0.335 1.753,-0.335 1.586,0 3.299,0.584 3.785,0.763 l 6.342,-1.333 c 0.032,-0.007 0.063,-0.01 0.095,-0.01 l 0.007,0 c 0.287,0.002 0.469,0.205 0.469,0.463 0,0.082 -0.022,0.159 -0.059,0.226 l -1.182,4.175 c 0.44,1.198 1.231,3.73 0.411,4.548 -0.455,0.456 -1.138,0.687 -2.03,0.687 -1.514,0 -3.282,-0.662 -3.952,-0.938 l -33.993,29.122 c 2.218,0.754 3.201,3.375 3.41,4.014 l 37.104,30.377 c 0.02,0.017 0.039,0.035 0.056,0.055 l 18.319,21.102 c 4.328,0.412 6.549,1.007 7.423,3.167 0.265,0.655 0.25,1.23 -0.042,1.711"
             inkscape:connector-curvature="0" /></g><g
           transform="translate(516.7061,444.5439)"
           id="g56"><path
             id="path58"
             style="fill:#231f20;fill-opacity:1;fill-rule:nonzero;stroke:none"
             d="m 0,0 c -2.458,0 -14.969,0.189 -23.591,3.897 -0.128,0.055 -0.191,0.214 -0.141,0.356 0.05,0.142 0.194,0.212 0.323,0.156 C -13.95,0.341 0.278,0.549 0.419,0.552 l 0.004,0 C 0.559,0.552 0.67,0.431 0.673,0.281 0.674,0.129 0.564,0.004 0.427,0.002 0.413,0.002 0.265,0 0,0"
             inkscape:connector-curvature="0" /></g><g
           transform="translate(134.043,565.5171)"
           id="g60"><path
             id="path62"
             style="fill:#231f20;fill-opacity:1;fill-rule:nonzero;stroke:none"
             d="m 0,0 c 4.82,0.477 8.167,0.714 10.043,0.714 2.563,0 4.522,-0.581 5.875,-1.744 1.353,-1.163 2.029,-2.553 2.029,-4.171 0,-1.416 -0.661,-2.791 -1.984,-4.126 -1.322,-1.334 -4.162,-2.998 -8.521,-4.99 l 6.161,-1.623 c 2.649,1.635 4.692,3.403 6.127,5.302 1.437,1.899 2.155,3.99 2.155,6.272 0,1.495 -0.451,2.965 -1.352,4.409 C 19.632,1.488 18.249,2.639 16.386,3.498 14.522,4.356 12.375,4.786 9.945,4.786 7.98,4.786 5.469,4.599 2.411,4.227 Z m -5.94,-10.415 c 1.904,-0.418 3.458,-0.806 4.66,-1.162 1.202,-0.356 3.342,-1.067 6.42,-2.133 4.886,2.226 7.328,4.381 7.325,6.466 0,0.647 -0.285,1.234 -0.856,1.76 -0.571,0.526 -1.296,0.789 -2.177,0.789 -1.08,0 -2.412,-0.094 -3.994,-0.281 -4.403,-0.469 -7.296,-0.703 -8.677,-0.703 z M 7.126,15.274 c -3.164,1.572 -5.632,2.624 -7.406,3.159 -1.773,0.533 -3.335,0.801 -4.685,0.801 -1.894,0 -3.436,-0.536 -4.625,-1.606 -1.189,-1.07 -1.783,-2.322 -1.783,-3.755 0,-1.415 0.51,-2.575 1.53,-3.484 1.019,-0.909 2.559,-1.363 4.619,-1.363 1.354,0 4.402,0.202 9.143,0.605 z M 0.781,4.107 C -1.848,3.731 -4.395,3.543 -6.86,3.543 c -2.746,0 -4.695,0.323 -5.846,0.97 -1.151,0.646 -2.009,1.655 -2.574,3.029 -1.454,-0.929 -2.181,-2.08 -2.181,-3.453 0,-1.253 0.565,-2.282 1.696,-3.089 1.494,-1.051 4.048,-1.576 7.663,-1.576 1.7,0 3.862,0.154 6.484,0.461 z m -3.041,-21.19 c -5.024,1.682 -9.141,2.52 -12.353,2.514 -1.656,0 -2.969,-0.364 -3.938,-1.091 -0.667,-0.485 -1,-1.08 -1,-1.787 0,-0.747 0.333,-1.343 0.999,-1.787 1.05,-0.727 2.575,-1.091 4.574,-1.091 3.069,0 6.975,1.081 11.718,3.242 m -1.526,41.769 13.664,-4.569 1.012,1.784 c 0.367,0.645 0.627,1.043 0.779,1.195 0.153,0.151 0.332,0.227 0.535,0.227 0.203,0 0.372,-0.07 0.505,-0.21 0.132,-0.14 0.198,-0.301 0.198,-0.48 0,-0.287 -0.25,-0.85 -0.751,-1.689 L 5.554,9.739 l 5.245,0.347 c 1.575,0.061 3.407,-0.162 5.498,-0.666 2.09,-0.505 3.887,-1.288 5.391,-2.348 1.504,-1.06 2.685,-2.312 3.544,-3.756 0.858,-1.443 1.288,-3.034 1.288,-4.77 0,-3.191 -1.337,-6.326 -4.011,-9.405 -2.673,-3.079 -7.43,-6.326 -14.27,-9.738 -2.406,0.889 -5.202,1.826 -8.389,2.808 -5.685,-2.599 -10.355,-3.898 -14.01,-3.898 -2.605,0 -4.609,0.57 -6.012,1.711 -1.404,1.141 -2.105,2.458 -2.105,3.953 0,1.594 0.848,3.054 2.544,4.377 1.696,1.322 4.21,1.983 7.542,1.983 1.313,0 2.937,-0.161 4.873,-0.483 l 2.467,4.342 -4.432,-0.345 c -1.05,-0.02 -2.464,0.126 -4.24,0.439 -1.778,0.313 -3.237,0.823 -4.377,1.53 -1.142,0.706 -1.995,1.575 -2.56,2.605 -0.565,1.03 -0.848,2.11 -0.848,3.241 0,1.797 0.636,3.392 1.908,4.786 0.808,0.888 2.14,1.685 3.999,2.392 l -0.031,0.364 c 0,1.878 0.834,4.033 2.502,6.467 1.668,2.433 4.717,5.437 9.144,9.011"
             inkscape:connector-curvature="0" /></g><g
           transform="translate(175.0557,577.2085)"
           id="g64"><path
             id="path66"
             style="fill:#231f20;fill-opacity:1;fill-rule:nonzero;stroke:none"
             d="m 0,0 7.86,-4.498 -3.225,-4.71 -5.922,3.423 0,-19.325 5.96,-2.662 3.17,2.293 0.32,-1.297 -7.497,-5.513 c -1.936,1.091 -3.589,1.893 -4.96,2.409 -1.371,0.514 -3.055,0.963 -5.051,1.347 l 0,0.727 c 0.707,0.485 1.171,1.01 1.394,1.576 0.323,0.787 0.484,2.019 0.484,3.695 l 0,17.234 C -4.947,-4.149 -2.459,-2.383 0,0"
             inkscape:connector-curvature="0" /></g><g
           transform="translate(197.9395,588.3247)"
           id="g68"><path
             id="path70"
             style="fill:#231f20;fill-opacity:1;fill-rule:nonzero;stroke:none"
             d="m 0,0 0.303,-0.727 c -1.446,-0.929 -2.434,-1.919 -2.962,-2.968 -0.529,-1.05 -0.794,-2.716 -0.794,-4.998 l 0,-9.874 9.374,7.451 c 1.993,-1.294 3.292,-2.542 3.895,-3.744 0.604,-1.202 0.907,-3.248 0.907,-6.138 l 0,-13.731 c 0,-2.627 -0.274,-4.547 -0.819,-5.759 -0.868,-1.981 -2.473,-3.84 -4.815,-5.578 -3.07,-2.304 -6.978,-4.294 -11.723,-5.971 l -0.424,1.151 c 3.857,1.595 6.542,3.05 8.057,4.362 1.515,1.313 2.504,2.707 2.969,4.18 0.343,1.111 0.514,3.999 0.514,8.664 l 0,12.693 c 0,1.413 -0.141,2.393 -0.424,2.938 -0.425,0.748 -1.203,1.485 -2.335,2.212 l -5.176,-4.192 0,-16.864 2.15,-2.165 -5.315,-4.347 -5.407,4.347 2.392,2.377 0,27.54 c 0,2.502 -0.22,4.217 -0.66,5.145 -0.439,0.928 -1.311,1.765 -2.61,2.512 l 0.333,0.757 c 1.066,-0.303 1.922,-0.641 2.567,-1.014 0.644,-0.374 1.489,-1.026 2.536,-1.954 1.235,1.171 2.418,2.029 3.551,2.574 C -2.782,-0.575 -1.478,-0.202 0,0"
             inkscape:connector-curvature="0" /></g><g
           transform="translate(237.0137,568.3657)"
           id="g72"><path
             id="path74"
             style="fill:#231f20;fill-opacity:1;fill-rule:nonzero;stroke:none"
             d="m 0,0 0,-15.146 7.693,-3.241 0,16.848 c 0,1.495 -0.147,2.52 -0.44,3.076 -0.294,0.556 -1.14,1.369 -2.536,2.44 z m -13.873,0.255 0,-15.553 7.633,-3.181 0,16.513 c 0,1.737 -0.182,2.958 -0.546,3.665 -0.364,0.707 -1.193,1.475 -2.487,2.303 z M 0,1.543 9.011,8.843 C 10.895,7.49 12.12,6.288 12.688,5.238 13.478,3.825 13.872,2.179 13.872,0.301 l 0,-18.355 c -2.123,-0.667 -3.913,-1.404 -5.369,-2.212 -1.456,-0.807 -2.933,-1.867 -4.429,-3.18 -3.413,2.161 -6.261,3.241 -8.542,3.241 -2.14,0 -4.281,-1.08 -6.422,-3.241 -2.002,1.655 -3.917,2.852 -5.747,3.59 -1.83,0.736 -3.826,1.166 -5.989,1.287 l 0,0.727 c 0.908,0.363 1.549,0.883 1.923,1.56 0.373,0.676 0.56,1.993 0.56,3.952 l 0,11.48 c 0,1.797 -0.055,2.893 -0.167,3.287 -0.111,0.394 -0.438,0.903 -0.984,1.529 -0.868,1.01 -1.454,1.873 -1.757,2.59 -0.303,0.716 -0.454,1.54 -0.454,2.468 0,1.697 0.526,3.186 1.575,4.468 1.05,1.282 2.898,2.57 5.543,3.862 l 0.545,-0.787 c -2.18,-1.515 -3.271,-2.989 -3.271,-4.422 0,-0.505 0.122,-0.98 0.364,-1.424 0.121,-0.222 0.857,-1.081 2.211,-2.575 0.908,-0.989 1.605,-2.09 2.09,-3.301 0.282,-0.727 0.474,-1.767 0.575,-3.12 l 8.83,7.118 C -3.433,7.772 -2.24,6.662 -1.465,5.511 -0.689,4.36 -0.202,3.037 0,1.543"
             inkscape:connector-curvature="0" /></g><g
           transform="translate(264.2441,573.7251)"
           id="g76"><path
             id="path78"
             style="fill:#231f20;fill-opacity:1;fill-rule:nonzero;stroke:none"
             d="m 0,0 -0.424,-0.212 0,-13.753 7.979,5.592 z m 4.604,3.483 8.542,-9.965 -13.57,-9.511 0,-5.512 7.027,-2.787 4.755,3.241 0.666,-0.909 -9.797,-6.845 c -2.002,1.07 -3.651,1.837 -4.945,2.302 -1.295,0.464 -3.135,0.949 -5.521,1.454 l 0,0.757 c 0.686,0.404 1.146,0.903 1.379,1.5 0.231,0.595 0.347,1.882 0.347,3.861 l 0,17.326 c 1.899,0.686 3.474,1.313 4.726,1.878 0.908,0.424 3.039,1.494 6.391,3.21"
             inkscape:connector-curvature="0" /></g><g
           transform="translate(297.123,577.2085)"
           id="g80"><path
             id="path82"
             style="fill:#231f20;fill-opacity:1;fill-rule:nonzero;stroke:none"
             d="M 0,0 4.589,-5.498 0,-9.571 l -3.828,4.85 -3.002,-2.731 0,-17.628 3.453,-2.483 3.119,2.453 0.697,-0.969 -7.769,-6.21 c -1.652,1.474 -3.038,2.534 -4.157,3.181 -1.118,0.646 -2.343,1.151 -3.673,1.514 l 0,0.667 c 0.889,0.625 1.469,1.257 1.742,1.893 0.272,0.636 0.408,1.852 0.408,3.65 l 0,12.358 c 0,1.554 -0.173,2.589 -0.518,3.105 -0.347,0.514 -0.727,0.772 -1.142,0.772 -0.455,0 -1.078,-0.404 -1.868,-1.212 L -17.28,-5.482 -10.965,0 c 1.723,-1.312 2.898,-2.453 3.527,-3.422 0.405,-0.606 0.608,-1.445 0.608,-2.515 z"
             inkscape:connector-curvature="0" /></g><g
           transform="translate(303.9834,573.9038)"
           id="g84"><path
             id="path86"
             style="fill:#231f20;fill-opacity:1;fill-rule:nonzero;stroke:none"
             d="m 0,0 8.45,10.423 0.879,0 -0.303,-8.36 6.088,0 0,-3.393 -6.088,0 0,-20.415 3.392,-2.514 1.939,1.515 0.757,-0.909 -6.678,-5.331 c -2.27,2.322 -4.839,3.897 -7.709,4.725 l 0,0.606 c 0.807,0.546 1.342,1.112 1.605,1.699 0.343,0.747 0.515,1.829 0.515,3.245 l 0,17.379 -2.847,0 z"
             inkscape:connector-curvature="0" /></g><g
           transform="translate(354.7734,566.8281)"
           id="g88"><path
             id="path90"
             style="fill:#231f20;fill-opacity:1;fill-rule:nonzero;stroke:none"
             d="m 0,0 c 1.514,0.979 2.586,1.964 3.216,2.956 0.435,0.699 0.654,1.561 0.654,2.585 0,1.501 -0.517,2.846 -1.551,4.032 -1.034,1.186 -2.075,1.78 -3.125,1.78 -0.888,0 -1.659,-0.315 -2.313,-0.945 -0.654,-0.63 -0.982,-1.341 -0.982,-2.132 0,-0.614 0.299,-1.454 0.897,-2.52 z m -5.215,-17.621 5.97,4.183 -5.222,9.334 -6.685,-4.361 z m -4.239,-4.287 -7.268,11.095 11.756,7.602 -4.706,8.41 c -0.404,0.711 -0.605,1.365 -0.605,1.963 0,0.516 0.177,0.977 0.533,1.38 0.549,0.646 1.251,1.115 2.107,1.405 0.226,0.081 0.379,0.137 0.46,0.17 L 3.87,14.792 C 5.064,14.244 6.074,13.347 6.897,12.104 7.722,10.861 8.133,9.513 8.133,8.061 8.133,6.946 7.891,5.929 7.406,5.009 6.921,4.089 6.161,3.201 5.127,2.345 4.48,1.796 2.934,0.724 0.486,-0.873 l 5.108,-9.174 7.239,5.072 c 1.179,-0.921 2.107,-1.535 2.786,-1.841 0.678,-0.307 1.3,-0.46 1.865,-0.46 0.209,0 0.452,0.024 0.727,0.072 0.129,0.016 0.233,0.024 0.314,0.024 l 0.219,-0.072 c 0.08,-0.113 0.121,-0.234 0.121,-0.364 0,-0.436 -0.521,-1.066 -1.563,-1.889 -1.043,-0.824 -2.161,-1.236 -3.357,-1.236 -1.551,0 -2.989,0.745 -4.314,2.235 l -3.52,-2.472 c 1.009,-1.812 1.804,-3.078 2.386,-3.796 0.581,-0.719 1.368,-1.345 2.361,-1.877 0.994,-0.534 2.128,-0.8 3.404,-0.8 0.921,0 1.97,0.283 3.149,0.848 0.129,0.064 0.235,0.097 0.316,0.097 0.08,0 0.145,-0.033 0.193,-0.097 0.081,-0.081 0.121,-0.169 0.121,-0.267 0,-0.484 -0.295,-1.154 -0.884,-2.01 -0.59,-0.856 -1.454,-1.575 -2.592,-2.156 -1.138,-0.582 -2.362,-0.872 -3.67,-0.872 -1.454,0 -2.753,0.299 -3.9,0.896 -1.147,0.597 -2.165,1.421 -3.053,2.471 -0.646,0.759 -1.534,2.148 -2.664,4.169 z"
             inkscape:connector-curvature="0" /></g><g
           transform="translate(198.0039,507.7666)"
           id="g92"><path
             id="path94"
             style="fill:#231f20;fill-opacity:1;fill-rule:nonzero;stroke:none"
             d="m 0,0 c -1.353,-0.727 -2.897,-1.282 -4.634,-1.666 l 0,-24.403 c 0,-0.849 -0.081,-2.443 -0.242,-4.785 -0.101,-1.372 -0.262,-2.412 -0.482,-3.118 -0.342,-1.049 -0.845,-2.044 -1.508,-2.982 -0.664,-0.939 -1.79,-2.155 -3.379,-3.649 2.639,0.969 4.744,2.165 6.316,3.588 1.572,1.423 2.619,2.957 3.143,4.602 C -0.262,-30.768 0,-28.3 0,-25.01 Z m 18.628,7.997 1.333,0 C 19.88,6.22 19.607,4.866 19.144,3.938 18.497,2.706 17.538,1.727 16.266,1 14.993,0.273 13.59,-0.091 12.056,-0.091 10.42,-0.091 8.471,0.354 6.21,1.242 l 0,-8.026 9.48,0 -1.742,-4.514 -7.738,0 0,-14.393 c 0,-2.848 -0.197,-4.924 -0.591,-6.227 -0.394,-1.304 -1.166,-2.551 -2.316,-3.743 -1.15,-1.192 -2.593,-2.192 -4.328,-2.999 -2.483,-1.172 -4.481,-2.01 -5.995,-2.516 l -12.683,-4.258 c -3.998,1.495 -6.32,2.242 -6.967,2.242 -0.565,0 -1.07,-0.2 -1.515,-0.598 -0.444,-0.398 -0.756,-1.048 -0.938,-1.947 l -1.287,0.304 c 0,1.4 0.171,2.504 0.514,3.315 0.545,1.298 1.313,2.281 2.302,2.95 0.99,0.669 2.05,1.004 3.181,1.004 1.595,0 3.654,-0.546 6.179,-1.636 1.776,-0.788 2.862,-1.242 3.255,-1.363 0.395,-0.121 0.773,-0.182 1.137,-0.182 0.625,0 1.201,0.257 1.727,0.773 0.524,0.514 0.862,1.301 1.014,2.362 0.152,1.061 0.227,3.266 0.227,6.618 l 0,20.294 -1.88,0.03 c -3.113,0 -5.424,-0.358 -6.93,-1.075 -1.505,-0.717 -2.805,-1.923 -3.896,-3.619 l -1.166,0.499 c 0.807,2.661 1.867,4.576 3.18,5.745 2.221,1.976 5.3,2.964 9.238,2.964 0.323,0 0.807,-0.011 1.454,-0.03 l 0,6.451 2.092,-0.091 c 2.263,0 4.497,0.459 6.7,1.378 2.202,0.919 4.052,2.015 5.548,3.287 0.989,0.868 2.041,2.12 3.152,3.756 3.308,-2.12 6.021,-3.181 8.138,-3.181 0.928,0 1.714,0.247 2.359,0.743 0.646,0.494 1.15,1.306 1.513,2.438"
             inkscape:connector-curvature="0" /></g><g
           transform="translate(229.8994,499.2861)"
           id="g96"><path
             id="path98"
             style="fill:#231f20;fill-opacity:1;fill-rule:nonzero;stroke:none"
             d="m 0,0 -0.424,-0.212 0,-13.754 7.979,5.593 z m 4.604,3.483 8.542,-9.965 -13.57,-9.511 0,-5.513 7.027,-2.787 4.755,3.241 0.666,-0.908 -9.797,-6.846 c -2.002,1.071 -3.651,1.837 -4.945,2.302 -1.295,0.465 -3.135,0.949 -5.521,1.454 l 0,0.757 c 0.686,0.404 1.146,0.904 1.379,1.5 0.231,0.595 0.347,1.883 0.347,3.861 l 0,17.327 c 1.899,0.686 3.474,1.312 4.726,1.877 0.908,0.424 3.039,1.495 6.391,3.211"
             inkscape:connector-curvature="0" /></g><g
           transform="translate(261.6729,494.5723)"
           id="g100"><path
             id="path102"
             style="fill:#231f20;fill-opacity:1;fill-rule:nonzero;stroke:none"
             d="M 0,0 -6.256,4.269 C -6.809,3.826 -7.379,3.433 -7.967,3.09 l 0,-18.731 L 0,-19.185 Z M -16.326,18.525 4.271,4.381 C 4.594,5.127 4.952,5.692 5.346,6.076 5.739,6.46 6.34,6.823 7.148,7.167 l 0,-1.242 C 6.744,5.38 6.481,4.885 6.36,4.441 6.239,3.997 6.179,3.088 6.179,1.715 l 0,-20.385 c -2.561,-0.97 -4.466,-1.812 -5.716,-2.529 -1.25,-0.717 -2.601,-1.681 -4.053,-2.893 -2.386,1.555 -4.498,2.686 -6.338,3.393 -1.841,0.706 -3.821,1.191 -5.944,1.454 l 0,0.575 c 0.726,0.626 1.196,1.257 1.408,1.893 0.212,0.636 0.318,1.954 0.318,3.953 l 0,15.872 c 2.767,0.767 4.724,1.634 5.871,2.598 l -8.051,5.493 z"
             inkscape:connector-curvature="0" /></g><g
           transform="translate(282.2695,499.2861)"
           id="g104"><path
             id="path106"
             style="fill:#231f20;fill-opacity:1;fill-rule:nonzero;stroke:none"
             d="m 0,0 -0.424,-0.212 0,-13.754 7.979,5.593 z m 4.604,3.483 8.542,-9.965 -13.57,-9.511 0,-5.513 7.027,-2.787 4.755,3.241 0.666,-0.908 -9.797,-6.846 c -2.002,1.071 -3.651,1.837 -4.945,2.302 -1.295,0.465 -3.135,0.949 -5.521,1.454 l 0,0.757 c 0.686,0.404 1.146,0.904 1.379,1.5 0.231,0.595 0.347,1.883 0.347,3.861 l 0,17.327 c 1.899,0.686 3.474,1.312 4.726,1.877 0.908,0.424 3.039,1.495 6.391,3.211"
             inkscape:connector-curvature="0" /></g><g
           transform="translate(315.1494,502.7695)"
           id="g108"><path
             id="path110"
             style="fill:#231f20;fill-opacity:1;fill-rule:nonzero;stroke:none"
             d="M 0,0 4.589,-5.498 0,-9.572 l -3.828,4.85 -3.002,-2.73 0,-17.628 3.453,-2.483 3.119,2.453 0.697,-0.97 -7.769,-6.209 c -1.652,1.474 -3.038,2.534 -4.157,3.181 -1.118,0.645 -2.343,1.15 -3.673,1.514 l 0,0.666 c 0.889,0.626 1.469,1.257 1.742,1.893 0.272,0.637 0.408,1.852 0.408,3.65 l 0,12.359 c 0,1.554 -0.173,2.589 -0.518,3.104 -0.347,0.515 -0.727,0.773 -1.142,0.773 -0.455,0 -1.078,-0.405 -1.868,-1.212 L -17.28,-5.482 -10.965,0 c 1.723,-1.313 2.898,-2.454 3.527,-3.423 0.405,-0.606 0.608,-1.444 0.608,-2.514 z"
             inkscape:connector-curvature="0" /></g><g
           transform="translate(501.9004,581.7158)"
           id="g112"><path
             id="path114"
             style="fill:#231f20;fill-opacity:1;fill-rule:nonzero;stroke:none"
             d="M 0,0 C -0.134,0 -0.268,0.058 -0.358,0.171 -0.52,0.369 -0.49,0.66 -0.292,0.821 l 33.914,27.555 12.702,14.819 c 0.166,0.194 0.457,0.217 0.652,0.05 0.194,-0.166 0.216,-0.458 0.05,-0.652 L 34.297,27.742 c -0.018,-0.021 -0.038,-0.04 -0.06,-0.058 L 0.292,0.104 C 0.206,0.034 0.103,0 0,0"
             inkscape:connector-curvature="0" /></g><g
           transform="translate(334.9521,317.5205)"
           id="g116"><path
             id="path118"
             style="fill:#231f20;fill-opacity:1;fill-rule:nonzero;stroke:none"
             d="m 0,0 c 3.397,0.335 5.758,0.503 7.079,0.503 1.809,0 3.189,-0.41 4.143,-1.231 0.953,-0.818 1.429,-1.798 1.429,-2.939 0,-0.997 -0.466,-1.967 -1.398,-2.908 -0.933,-0.941 -2.935,-2.113 -6.006,-3.518 l 4.342,-1.144 c 1.867,1.154 3.307,2.4 4.319,3.738 1.013,1.339 1.519,2.812 1.519,4.421 0,1.054 -0.318,2.091 -0.953,3.108 C 13.839,1.049 12.865,1.86 11.552,2.465 10.236,3.07 8.724,3.373 7.011,3.373 5.626,3.373 3.856,3.241 1.699,2.979 Z m -4.187,-7.342 c 1.342,-0.295 2.437,-0.567 3.285,-0.819 0.848,-0.251 2.356,-0.752 4.525,-1.504 3.444,1.569 5.166,3.089 5.164,4.559 0,0.456 -0.201,0.87 -0.602,1.24 -0.404,0.371 -0.914,0.556 -1.536,0.556 -0.761,0 -1.7,-0.066 -2.815,-0.198 -3.104,-0.33 -5.143,-0.496 -6.116,-0.496 z m 9.21,18.108 c -2.229,1.108 -3.97,1.849 -5.219,2.226 -1.25,0.376 -2.352,0.566 -3.303,0.566 -1.335,0 -2.423,-0.378 -3.26,-1.132 -0.839,-0.755 -1.257,-1.637 -1.257,-2.648 0,-0.996 0.359,-1.815 1.079,-2.456 0.717,-0.64 1.803,-0.96 3.255,-0.96 0.954,0 3.103,0.142 6.446,0.427 z M 0.551,2.895 C -1.302,2.63 -3.097,2.497 -4.835,2.497 c -1.936,0 -3.31,0.228 -4.12,0.684 -0.812,0.455 -1.417,1.166 -1.816,2.134 -1.024,-0.654 -1.538,-1.466 -1.538,-2.433 0,-0.883 0.399,-1.609 1.198,-2.178 1.052,-0.741 2.853,-1.11 5.401,-1.11 1.198,0 2.722,0.107 4.57,0.325 z m -2.143,-14.937 c -3.542,1.185 -6.445,1.775 -8.708,1.771 -1.168,0 -2.093,-0.256 -2.776,-0.768 -0.47,-0.342 -0.705,-0.762 -0.705,-1.26 0,-0.527 0.235,-0.946 0.705,-1.259 0.74,-0.513 1.815,-0.769 3.223,-0.769 2.164,0 4.916,0.761 8.261,2.285 M -2.668,17.4 6.964,14.18 7.677,15.438 c 0.259,0.455 0.441,0.735 0.549,0.841 0.108,0.107 0.234,0.161 0.378,0.161 0.142,0 0.261,-0.049 0.355,-0.148 0.093,-0.1 0.141,-0.212 0.141,-0.338 0,-0.203 -0.178,-0.6 -0.53,-1.191 L 3.915,6.865 7.612,7.109 c 1.111,0.043 2.403,-0.114 3.875,-0.469 1.474,-0.357 2.741,-0.908 3.802,-1.655 1.06,-0.748 1.893,-1.631 2.497,-2.647 0.606,-1.019 0.908,-2.14 0.908,-3.364 0,-2.249 -0.943,-4.458 -2.827,-6.628 -1.885,-2.172 -5.237,-4.459 -10.058,-6.866 -1.697,0.628 -3.668,1.288 -5.914,1.98 -4.007,-1.832 -7.299,-2.748 -9.875,-2.748 -1.837,0 -3.249,0.402 -4.238,1.207 -0.99,0.804 -1.485,1.732 -1.485,2.786 0,1.124 0.598,2.152 1.794,3.084 1.195,0.933 2.968,1.399 5.316,1.399 0.926,0 2.071,-0.113 3.436,-0.341 l 1.738,3.061 -3.124,-0.243 c -0.741,-0.014 -1.737,0.089 -2.989,0.31 -1.253,0.22 -2.281,0.58 -3.085,1.078 -0.804,0.498 -1.406,1.11 -1.805,1.837 -0.398,0.724 -0.598,1.487 -0.598,2.284 0,1.266 0.449,2.391 1.346,3.374 0.569,0.625 1.508,1.187 2.819,1.685 l -0.023,0.257 c 0,1.323 0.589,2.843 1.764,4.559 1.176,1.715 3.326,3.832 6.446,6.351"
             inkscape:connector-curvature="0" /></g><g
           transform="translate(363.2539,319.6338)"
           id="g120"><path
             id="path122"
             style="fill:#231f20;fill-opacity:1;fill-rule:nonzero;stroke:none"
             d="m 0,0 0,-11.038 c 1.665,-0.342 2.801,-0.603 3.406,-0.779 0.605,-0.179 1.313,-0.453 2.124,-0.824 l 0,11.983 c 0,0.654 -0.025,1.042 -0.075,1.164 -0.05,0.12 -0.261,0.337 -0.63,0.65 C 3.998,1.869 3.356,2.381 2.9,2.694 Z m -7.365,2.84 4.494,3.288 C -1.714,5.33 -0.946,4.591 -0.567,3.907 -0.188,3.224 0,2.285 0,1.088 l 5.541,5.04 C 7.41,4.775 8.659,3.615 9.286,2.647 9.687,2.021 9.887,1.088 9.887,-0.149 l 0,-11.957 c -1.863,-0.84 -3.958,-2.349 -6.288,-4.527 -0.848,0.541 -2.047,1.168 -3.599,1.879 l 0,-1.517 c 0,-1.778 0.179,-3.052 0.534,-3.82 0.356,-0.769 0.996,-1.445 1.921,-2.029 l -0.276,-0.576 c -1.568,0.554 -2.739,1.089 -3.515,1.6 -0.551,0.371 -1.044,0.876 -1.482,1.517 -1.025,-0.91 -1.994,-1.53 -2.904,-1.858 l -0.299,0.427 c 0.612,0.584 1.042,1.185 1.292,1.805 0.249,0.618 0.374,1.476 0.374,2.572 l 0,3.117 c -0.797,0.157 -1.623,0.236 -2.476,0.236 -0.072,0 -0.186,-0.008 -0.342,-0.022 l 0,1.793 c 1.024,0.242 1.964,0.405 2.818,0.491 l 0,10.633 c 0,1.154 -0.16,1.95 -0.48,2.392 -0.319,0.441 -0.645,0.662 -0.98,0.662 -0.26,0 -0.602,-0.185 -1.028,-0.556 z"
             inkscape:connector-curvature="0" /></g><g
           transform="translate(382.2129,333.0625)"
           id="g124"><path
             id="path126"
             style="fill:#231f20;fill-opacity:1;fill-rule:nonzero;stroke:none"
             d="m 0,0 2.713,0 -2.947,-4.61 -0.855,0 z m -1.611,-7.301 3.79,-3.149 -1.688,-1.633 0,-11.616 c 0,-1.225 0.103,-2.022 0.31,-2.391 0.204,-0.37 0.416,-0.556 0.636,-0.556 0.153,0 0.294,0.037 0.424,0.108 0.18,0.099 0.553,0.384 1.118,0.853 l 0.524,-0.661 -4.58,-3.716 c -1.145,0.811 -1.88,1.577 -2.209,2.296 -0.329,0.718 -0.492,1.975 -0.492,3.768 l 0,11.915 -1.602,1.633 z"
             inkscape:connector-curvature="0" /></g><g
           transform="translate(394.8535,323.3057)"
           id="g128"><path
             id="path130"
             style="fill:#231f20;fill-opacity:1;fill-rule:nonzero;stroke:none"
             d="m 0,0 -0.299,-0.149 0,-9.695 5.623,3.942 z m 3.246,2.456 6.02,-7.024 -9.565,-6.704 0,-3.886 4.953,-1.965 3.353,2.284 0.47,-0.64 -6.908,-4.826 c -1.411,0.754 -2.573,1.295 -3.484,1.623 -0.913,0.328 -2.21,0.669 -3.892,1.025 l 0,0.534 c 0.483,0.284 0.807,0.638 0.97,1.057 0.165,0.42 0.246,1.327 0.246,2.722 l 0,12.213 c 1.339,0.484 2.448,0.925 3.331,1.323 0.641,0.299 2.143,1.053 4.506,2.264"
             inkscape:connector-curvature="0" /></g><g
           transform="translate(415.3721,333.5967)"
           id="g132"><path
             id="path134"
             style="fill:#231f20;fill-opacity:1;fill-rule:nonzero;stroke:none"
             d="m 0,0 0,-0.555 c -1.125,-0.584 -1.918,-1.299 -2.381,-2.146 -0.463,-0.847 -0.694,-2.131 -0.694,-3.853 l 0,-18.981 2.434,-1.816 0.94,0.77 0.534,-0.77 -4.281,-3.245 c -1.294,1.125 -2.259,1.872 -2.899,2.242 -0.638,0.371 -1.484,0.705 -2.536,1.003 l 0,0.471 c 0.399,0.241 0.709,0.548 0.929,0.917 0.222,0.371 0.374,0.804 0.46,1.304 0.028,0.17 0.049,1.024 0.063,2.561 l 0,15.245 c 0,1.295 -0.049,2.195 -0.149,2.701 -0.1,0.505 -0.299,0.989 -0.598,1.451 -0.299,0.463 -0.804,0.979 -1.515,1.549 l 0.341,0.426 c 1.298,-0.37 2.462,-1.125 3.491,-2.263 1.066,1.125 2.028,1.893 2.887,2.306 C -2.114,-0.27 -1.123,-0.043 0,0"
             inkscape:connector-curvature="0" /></g><g
           transform="translate(425.333,325.7617)"
           id="g136"><path
             id="path138"
             style="fill:#231f20;fill-opacity:1;fill-rule:nonzero;stroke:none"
             d="m 0,0 5.541,-3.172 -2.275,-3.319 -4.174,2.413 0,-13.622 4.202,-1.878 2.233,1.617 0.227,-0.914 -5.285,-3.886 c -1.365,0.77 -2.53,1.335 -3.496,1.699 -0.967,0.362 -2.153,0.678 -3.56,0.949 l 0,0.512 c 0.498,0.342 0.825,0.712 0.982,1.111 0.227,0.554 0.341,1.424 0.341,2.604 l 0,12.15 C -3.488,-2.926 -1.733,-1.68 0,0"
             inkscape:connector-curvature="0" /></g><g
           transform="translate(442.21,333.5967)"
           id="g140"><path
             id="path142"
             style="fill:#231f20;fill-opacity:1;fill-rule:nonzero;stroke:none"
             d="m 0,0 0,-0.555 c -1.124,-0.584 -1.918,-1.299 -2.38,-2.146 -0.463,-0.847 -0.695,-2.131 -0.695,-3.853 l 0,-18.981 2.435,-1.816 0.939,0.77 0.534,-0.77 -4.28,-3.245 c -1.294,1.125 -2.259,1.872 -2.899,2.242 -0.639,0.371 -1.484,0.705 -2.536,1.003 l 0,0.471 c 0.399,0.241 0.709,0.548 0.929,0.917 0.221,0.371 0.374,0.804 0.46,1.304 0.027,0.17 0.049,1.024 0.063,2.561 l 0,15.245 c 0,1.295 -0.049,2.195 -0.149,2.701 -0.1,0.505 -0.299,0.989 -0.598,1.451 -0.299,0.463 -0.804,0.979 -1.515,1.549 l 0.34,0.426 c 1.299,-0.37 2.463,-1.125 3.492,-2.263 1.065,1.125 2.028,1.893 2.887,2.306 C -2.113,-0.27 -1.122,-0.043 0,0"
             inkscape:connector-curvature="0" /></g><g
           transform="translate(460.0703,325.7617)"
           id="g144"><path
             id="path146"
             style="fill:#231f20;fill-opacity:1;fill-rule:nonzero;stroke:none"
             d="m 0,0 3.811,-3.172 -1.73,-1.569 0,-11.208 c 0,-1.296 0.182,-2.222 0.546,-2.777 0.232,-0.383 0.487,-0.576 0.763,-0.576 0.204,0 0.596,0.228 1.178,0.683 l 0.524,-0.661 -4.537,-3.481 c -1.135,0.797 -1.875,1.513 -2.223,2.147 -0.348,0.632 -0.535,1.639 -0.564,3.02 -2.208,-1.42 -4.461,-3.142 -6.757,-5.167 -1.377,1.082 -2.278,2.032 -2.703,2.851 -0.425,0.818 -0.639,1.896 -0.639,3.235 l 0,10.547 c 0,0.739 -0.066,1.224 -0.199,1.452 -0.232,0.399 -0.548,0.598 -0.945,0.598 -0.298,0 -0.747,-0.242 -1.343,-0.727 l -0.523,0.663 5.049,4.142 3.875,-3.172 -1.602,-1.42 0,-11.351 c 0,-0.841 0.107,-1.457 0.322,-1.85 0.213,-0.392 0.731,-0.886 1.556,-1.484 l 3.909,2.881 0,11.655 -1.516,1.569 z"
             inkscape:connector-curvature="0" /></g><g
           transform="translate(473.5527,308.8721)"
           id="g148"><path
             id="path150"
             style="fill:#231f20;fill-opacity:1;fill-rule:nonzero;stroke:none"
             d="m 0,0 5.574,-2.198 0,12.016 c 0,1.111 -0.102,1.875 -0.307,2.295 -0.204,0.42 -0.694,0.893 -1.467,1.42 L 0,10.616 Z M 2.542,24.725 2.691,24.17 C 1.596,23.516 0.873,22.873 0.524,22.24 0.176,21.608 0,20.575 0,19.14 l 0,-7.503 6.779,5.253 c 1.263,-0.869 2.115,-1.719 2.554,-2.552 0.44,-0.833 0.66,-1.975 0.66,-3.427 l 0,-12.875 C 8.25,-2.646 6.805,-3.323 5.658,-3.992 4.779,-4.52 3.943,-5.145 3.149,-5.871 c -1.21,0.996 -2.418,1.766 -3.623,2.307 -1.204,0.54 -2.989,1.074 -5.354,1.6 l 0,0.384 c 0.612,0.428 0.996,0.927 1.152,1.497 0.242,0.84 0.364,2.784 0.364,5.834 l 0,12.372 c 0,1.61 -0.165,2.773 -0.491,3.494 -0.328,0.72 -0.947,1.393 -1.857,2.019 l 0.384,0.534 c 1.084,-0.47 1.828,-0.829 2.227,-1.078 0.4,-0.249 0.785,-0.573 1.157,-0.972 1.469,1.054 2.51,1.719 3.122,1.997 0.615,0.277 1.385,0.481 2.312,0.608"
             inkscape:connector-curvature="0" /></g><g
           transform="translate(333.2793,256.2725)"
           id="g152"><path
             id="path154"
             style="fill:#231f20;fill-opacity:1;fill-rule:nonzero;stroke:none"
             d="M 0,0 C 1.735,-0.143 3.148,-0.317 4.237,-0.523 5.327,-0.729 7.031,-1.16 9.352,-1.815 9.38,0.333 9.394,1.444 9.394,1.516 9.394,1.687 9.38,2.37 9.352,3.565 8.44,4.191 7.641,4.626 6.95,4.868 6.259,5.11 5.508,5.23 4.697,5.23 3.871,5.23 3.105,5.11 2.401,4.868 1.697,4.626 0.896,4.191 0,3.565 Z m 0,4.803 c 0.968,0.556 1.794,0.936 2.477,1.143 0.683,0.206 1.43,0.31 2.243,0.31 0.782,0 1.509,-0.097 2.176,-0.289 C 7.566,5.774 8.371,5.416 9.311,4.889 L 8.962,10.676 C 8.049,10.12 7.262,9.739 6.598,9.533 5.935,9.326 5.212,9.223 4.428,9.223 3.671,9.223 2.923,9.345 2.182,9.587 1.44,9.829 0.713,10.191 0,10.676 Z m 0,7.047 c 0.869,-0.613 1.63,-1.033 2.279,-1.26 0.65,-0.229 1.353,-0.342 2.108,-0.342 0.757,0 1.463,0.118 2.12,0.352 0.655,0.235 1.427,0.652 2.311,1.25 C 8.546,15.053 7.719,17.22 6.335,18.351 4.951,19.482 2.84,20.049 0,20.049 Z m -2.434,8.199 C -3.047,19.01 -3.459,18.106 -3.672,17.339 -3.957,16.286 -4.1,15.305 -4.1,14.395 l 0.17,-8.406 c 0,-1.081 -0.268,-2.183 -0.805,-3.306 -0.411,-0.84 -1.181,-1.865 -2.311,-3.074 2.071,0.331 3.651,0.491 4.744,0.477 l 1.213,-0.023 0,19.986 z m -17.295,5.914 1.003,0 c 0.229,-0.712 0.606,-1.218 1.132,-1.517 0.684,-0.398 1.794,-0.597 3.331,-0.597 0.983,0 4.1,0.099 9.352,0.298 3.175,0.128 5.152,0.193 5.935,0.193 2.364,0 4.374,-0.405 6.033,-1.217 1.657,-0.811 3.006,-2.058 4.046,-3.736 1.039,-1.68 1.729,-3.993 2.07,-6.94 0.242,-2.063 0.448,-6.612 0.62,-13.643 -2.775,-1.75 -4.91,-3.267 -6.402,-4.548 -4.526,1.267 -8.517,1.901 -11.976,1.901 -2.348,0 -4.525,-0.284 -6.531,-0.849 -2.006,-0.565 -4.133,-1.471 -6.382,-2.717 l -0.629,0.822 c 2.923,1.509 5.489,3.055 7.699,4.635 2.21,1.58 3.667,2.993 4.373,4.239 0.705,1.247 1.059,2.831 1.059,4.753 0,0.698 -0.015,1.731 -0.043,3.098 -0.028,0.953 -0.043,1.943 -0.043,2.968 0,1.808 0.103,3.14 0.307,3.994 0.202,0.855 0.633,1.837 1.295,2.949 l -0.552,0 c -1.73,-0.997 -2.882,-1.904 -3.455,-2.723 -0.575,-0.818 -0.862,-1.86 -0.862,-3.126 l 0.171,-7.579 c 0,-2.02 -0.605,-3.832 -1.817,-5.433 -1.21,-1.6 -4.117,-3.91 -8.719,-6.926 l -0.63,0.843 c 2.328,1.62 3.864,2.949 4.608,3.987 0.742,1.038 1.114,2.124 1.114,3.262 0,0.981 -0.315,1.816 -0.942,2.504 -0.626,0.69 -1.318,1.035 -2.075,1.035 -0.385,0 -0.741,-0.108 -1.07,-0.321 -0.327,-0.213 -0.77,-0.654 -1.326,-1.324 l -0.694,0.694 c 0.486,1.221 1.132,2.115 1.938,2.683 0.808,0.567 1.774,0.851 2.902,0.851 0.328,0 0.689,-0.036 1.081,-0.107 0.393,-0.071 0.818,-0.179 1.275,-0.32 -0.029,0.825 -0.042,1.545 -0.042,2.156 0,2.235 0.45,4.054 1.353,5.455 0.903,1.402 2.633,2.864 5.193,4.389 -2.351,-0.243 -4.381,-0.363 -6.091,-0.363 -1.81,0 -3.362,0.255 -4.658,0.768 -0.97,0.399 -1.682,1.035 -2.139,1.911 -0.456,0.875 -0.726,2.074 -0.812,3.598"
             inkscape:connector-curvature="0" /></g><g
           transform="translate(364.4414,277.3457)"
           id="g156"><path
             id="path158"
             style="fill:#231f20;fill-opacity:1;fill-rule:nonzero;stroke:none"
             d="M 0,0 -2.338,2.338 0,4.718 2.381,2.338 Z m -8.54,0 -2.381,2.338 2.381,2.38 2.337,-2.38 z m 10.078,-4.057 3.811,-3.171 -1.73,-1.569 0,-11.209 c 0,-1.296 0.182,-2.221 0.546,-2.775 0.232,-0.385 0.487,-0.577 0.763,-0.577 0.204,0 0.596,0.228 1.177,0.683 l 0.524,-0.662 -4.536,-3.48 c -1.136,0.796 -1.875,1.512 -2.223,2.146 -0.348,0.633 -0.535,1.641 -0.564,3.021 -2.209,-1.42 -4.461,-3.142 -6.757,-5.167 -1.377,1.082 -2.278,2.032 -2.703,2.85 -0.426,0.82 -0.639,1.897 -0.639,3.236 l 0,10.546 c 0,0.741 -0.067,1.224 -0.199,1.453 -0.232,0.398 -0.548,0.597 -0.946,0.597 -0.298,0 -0.747,-0.242 -1.342,-0.726 l -0.523,0.663 5.049,4.141 3.875,-3.171 -1.601,-1.419 0,-11.353 c 0,-0.841 0.106,-1.457 0.32,-1.85 0.213,-0.391 0.732,-0.885 1.556,-1.484 l 3.91,2.882 0,11.655 -1.516,1.569 z"
             inkscape:connector-curvature="0" /></g><g
           transform="translate(384.5645,267.5107)"
           id="g160"><path
             id="path162"
             style="fill:#231f20;fill-opacity:1;fill-rule:nonzero;stroke:none"
             d="M 0,0 -4.41,3.009 C -4.799,2.697 -5.201,2.42 -5.615,2.179 l 0,-13.204 L 0,-13.523 Z M -11.509,13.059 3.01,3.088 c 0.228,0.527 0.48,0.926 0.759,1.195 0.276,0.271 0.7,0.527 1.27,0.769 l 0,-0.875 C 4.754,3.792 4.568,3.443 4.483,3.131 4.398,2.818 4.355,2.178 4.355,1.209 l 0,-14.369 c -1.805,-0.683 -3.147,-1.278 -4.029,-1.783 -0.881,-0.505 -1.833,-1.185 -2.856,-2.039 -1.682,1.095 -3.171,1.892 -4.468,2.392 -1.298,0.498 -2.694,0.839 -4.19,1.024 l 0,0.406 c 0.512,0.441 0.843,0.887 0.993,1.335 0.149,0.448 0.223,1.377 0.223,2.786 l 0,11.187 c 1.951,0.541 3.33,1.152 4.139,1.831 l -5.676,3.873 z"
             inkscape:connector-curvature="0" /></g><g
           transform="translate(398.7197,280.5908)"
           id="g164"><path
             id="path166"
             style="fill:#231f20;fill-opacity:1;fill-rule:nonzero;stroke:none"
             d="m 0,0 2.713,0 -2.946,-4.611 -0.856,0 z m -1.611,-7.302 3.79,-3.149 -1.688,-1.633 0,-11.616 c 0,-1.224 0.104,-2.021 0.31,-2.391 0.205,-0.37 0.417,-0.555 0.636,-0.555 0.154,0 0.294,0.036 0.424,0.107 0.18,0.099 0.553,0.384 1.118,0.853 l 0.524,-0.661 -4.58,-3.715 c -1.145,0.811 -1.88,1.577 -2.209,2.295 -0.328,0.718 -0.492,1.975 -0.492,3.768 l 0,11.915 -1.602,1.633 z"
             inkscape:connector-curvature="0" /></g><g
           transform="translate(418.6934,273.2891)"
           id="g168"><path
             id="path170"
             style="fill:#231f20;fill-opacity:1;fill-rule:nonzero;stroke:none"
             d="m 0,0 2.914,-3.202 2.083,2.007 0.607,-0.577 C 4.599,-2.688 3.988,-3.38 3.772,-3.852 3.485,-4.48 3.342,-5.344 3.342,-6.444 l 0,-10.179 c 0,-0.942 0.15,-1.644 0.45,-2.1 0.186,-0.3 0.393,-0.45 0.622,-0.45 0.199,0 0.672,0.277 1.416,0.832 l 0.522,-0.662 -4.58,-3.758 c -1.186,0.891 -1.947,1.679 -2.283,2.365 -0.336,0.685 -0.504,1.792 -0.504,3.319 l 0,11.683 -1.886,1.994 -3.643,-2.924 0,-11.846 1.601,-1.527 -3.768,-3.064 -3.79,3.064 1.602,1.527 0,10.894 c 0,1.549 -0.159,2.594 -0.472,3.134 -0.215,0.37 -0.458,0.555 -0.729,0.555 -0.286,0 -0.715,-0.278 -1.287,-0.833 L -13.91,-3.759 -9.373,0 c 1.258,-0.936 2.043,-1.676 2.357,-2.219 0.315,-0.544 0.472,-1.299 0.472,-2.263 l 0,-0.771 z"
             inkscape:connector-curvature="0" /></g><g
           transform="translate(439.4375,268.165)"
           id="g172"><path
             id="path174"
             style="fill:#231f20;fill-opacity:1;fill-rule:nonzero;stroke:none"
             d="m 0,0 -5.829,2.006 0,-13.99 3.153,-2.287 2.676,3.189 z m -6.413,-19.836 c 1.851,0.299 3.345,0.448 4.484,0.448 1.026,0 2.061,-0.133 3.107,-0.405 1.046,-0.269 2.103,-0.684 3.172,-1.238 l 0.876,0.554 c -1.922,1.792 -3.227,3.242 -3.911,4.35 -0.682,1.108 -1.117,2.317 -1.302,3.625 z m 3.989,24.96 6.647,-3.118 3.975,2.008 0,-4.804 -3.844,0.747 0,-9.693 c 0,-1.566 0.093,-2.627 0.279,-3.182 0.242,-0.726 0.747,-1.565 1.516,-2.519 1.238,-1.58 1.857,-2.711 1.857,-3.395 0,-0.683 -0.324,-1.337 -0.973,-1.964 -0.649,-0.627 -2.378,-1.594 -5.186,-2.903 -0.955,0.341 -1.867,0.594 -2.737,0.757 -0.868,0.165 -1.695,0.246 -2.478,0.246 -1.881,0 -4.054,-0.335 -6.519,-1.003 l -0.299,0.724 5.053,5.899 -5.053,3.625 0,15.457 c 2.823,0.598 5.411,1.638 7.762,3.118"
             inkscape:connector-curvature="0" /></g><g
           transform="translate(455.9414,270.834)"
           id="g176"><path
             id="path178"
             style="fill:#231f20;fill-opacity:1;fill-rule:nonzero;stroke:none"
             d="m 0,0 -0.299,-0.149 0,-9.695 5.623,3.942 z m 3.245,2.455 6.021,-7.024 -9.565,-6.704 0,-3.886 4.952,-1.965 3.354,2.284 0.469,-0.64 -6.907,-4.826 c -1.412,0.755 -2.574,1.295 -3.485,1.623 -0.913,0.329 -2.21,0.67 -3.892,1.026 l 0,0.533 c 0.484,0.284 0.808,0.638 0.971,1.057 0.164,0.421 0.245,1.327 0.245,2.722 l 0,12.213 c 1.339,0.485 2.449,0.926 3.331,1.324 0.641,0.299 2.143,1.053 4.506,2.263"
             inkscape:connector-curvature="0" /></g><g
           transform="translate(480.5908,273.2891)"
           id="g180"><path
             id="path182"
             style="fill:#231f20;fill-opacity:1;fill-rule:nonzero;stroke:none"
             d="m 0,0 2.914,-3.202 2.082,2.007 0.608,-0.577 C 4.598,-2.688 3.987,-3.38 3.772,-3.852 3.485,-4.48 3.341,-5.344 3.341,-6.444 l 0,-10.179 c 0,-0.942 0.151,-1.644 0.451,-2.1 0.186,-0.3 0.393,-0.45 0.622,-0.45 0.199,0 0.672,0.277 1.415,0.832 l 0.523,-0.662 -4.581,-3.758 c -1.185,0.891 -1.946,1.679 -2.282,2.365 -0.336,0.685 -0.504,1.792 -0.504,3.319 l 0,11.683 -1.886,1.994 -3.643,-2.924 0,-11.846 1.601,-1.527 -3.768,-3.064 -3.79,3.064 1.601,1.527 0,10.894 c 0,1.549 -0.158,2.594 -0.472,3.134 -0.214,0.37 -0.457,0.555 -0.729,0.555 -0.286,0 -0.715,-0.278 -1.286,-0.833 L -13.91,-3.759 -9.374,0 c 1.258,-0.936 2.043,-1.676 2.358,-2.219 0.314,-0.544 0.472,-1.299 0.472,-2.263 l 0,-0.771 z"
             inkscape:connector-curvature="0" /></g></g></g></g></svg>